<svg width="64" height="64" viewBox="0 0 64 64" fill="none" xmlns="http://www.w3.org/2000/svg">
<path d="M49.7624 0H14.2376C6.37441 0 0 6.37441 0 14.2376V49.7624C0 57.6256 6.37441 64 14.2376 64H49.7624C57.6256 64 64 57.6256 64 49.7624V14.2376C64 6.37441 57.6256 0 49.7624 0Z" fill="url(#paint0_linear_35_3)"/>
<path d="M30.0457 56.0304C28.1365 55.3477 27.7276 54.4199 26.9436 48.9809C26.0334 42.6604 25.8346 38.7481 26.3622 37.509C27.0612 35.8661 28.9604 34.9333 31.6137 34.9233C34.2481 34.9121 36.1636 35.8536 36.8651 37.509C37.3952 38.7456 37.1964 42.6604 36.2849 48.9809C35.666 53.3971 35.3259 54.5137 34.4719 55.2639C33.2991 56.3029 31.6349 56.5905 30.0557 56.0316L30.0457 56.0304ZM21.891 49.5448C15.2979 46.3014 11.0743 40.8149 9.53887 33.5154C9.15501 31.6312 9.09 27.1387 9.4526 25.4082C10.4129 20.7682 12.2484 17.1397 15.2979 13.9313C19.6929 9.29756 25.3469 6.84814 31.6399 6.84814C37.8691 6.84814 43.5007 9.25255 47.7893 13.7475C51.0527 17.1397 52.887 20.7294 53.826 25.4595C54.1461 27.0337 54.1461 31.3261 53.8472 33.0966C52.8511 38.7269 49.7653 43.7732 45.2074 47.2254C43.5819 48.4495 39.6183 50.5876 38.9782 50.5876C38.7431 50.5876 38.7218 50.3451 38.8294 49.361C39.0207 47.7819 39.2132 47.4543 40.1085 47.0779C41.5389 46.4815 43.9708 44.7485 45.4637 43.2506C48.067 40.6488 49.9171 37.3905 50.8176 33.8218C51.3728 31.6249 51.309 26.7398 50.6926 24.478C48.7458 17.2823 42.8817 11.6932 35.6935 10.2003C33.6017 9.7727 29.8044 9.7727 27.6913 10.2003C20.4168 11.6932 14.4014 17.5598 12.5622 24.9406C12.0721 26.9411 12.0721 31.8312 12.5622 33.8368C13.7788 38.7219 16.9384 43.2018 21.0745 45.8688C21.7775 46.3384 22.5119 46.7591 23.2726 47.1279C24.1679 47.5118 24.3604 47.8319 24.5305 49.4098C24.6367 50.3701 24.6155 50.6476 24.3817 50.6476C24.2316 50.6476 23.1438 50.1788 21.9923 49.6236L21.891 49.5448ZM21.976 40.8687C19.7567 39.0982 17.7949 35.9574 16.9834 32.8778C16.4933 31.0173 16.4933 27.48 17.0047 25.6258C18.3488 20.6169 22.0398 16.7334 27.1599 14.9091C28.9104 14.2914 32.7865 14.1589 34.9458 14.6278C42.3691 16.2782 47.6393 23.7128 46.6203 31.0873C46.2151 34.0593 45.1911 36.5 43.3781 38.7669C42.4816 39.9122 40.306 41.8352 39.9222 41.8352C39.8584 41.8352 39.7971 41.11 39.7971 40.226V38.6181L40.9074 37.2952C45.0886 32.2864 44.7898 25.2919 40.2248 20.6982C38.4543 18.9114 36.4062 17.8612 33.7605 17.3773C32.0538 17.0609 31.6912 17.0609 29.8994 17.356C27.1787 17.7999 25.0719 18.8564 23.2001 20.7044C18.6051 25.2394 18.3063 32.2776 22.4887 37.2902L23.589 38.6181V40.2435C23.589 41.14 23.5177 41.869 23.4302 41.869C23.3426 41.869 22.7262 41.4426 22.0648 40.9087L21.976 40.8687ZM29.378 32.1588C27.48 31.2748 26.456 29.6094 26.4347 27.4375C26.4347 25.4857 27.5225 23.7828 29.3993 22.7863C30.5946 22.1611 32.7064 22.1611 33.9005 22.7863C35.2263 23.5022 36.221 24.7064 36.6738 26.1434C37.9116 30.3508 33.4529 34.0368 29.4218 32.1538L29.378 32.1588Z" fill="white"/>
<path d="M31.9763 32.9828C34.9145 32.9828 37.2965 30.6008 37.2965 27.6626C37.2965 24.7243 34.9145 22.3423 31.9763 22.3423C29.038 22.3423 26.6561 24.7243 26.6561 27.6626C26.6561 30.6008 29.038 32.9828 31.9763 32.9828Z" fill="white"/>
<path d="M32.4914 35.0446C33.0947 35.1134 33.6908 35.2348 34.2731 35.4072C34.9101 35.6101 35.5116 35.9108 36.0561 36.2986C36.5262 36.64 36.8676 36.9938 37.0801 37.424C37.2927 37.8541 37.4002 38.3667 37.464 39.2057C37.5065 40.0459 37.5065 41.2062 37.3152 43.3868C37.1239 45.5674 36.7388 48.7371 36.4399 50.7739C36.1411 52.8107 35.9286 53.7184 35.651 54.3798C35.4654 54.898 35.1504 55.3602 34.7359 55.7224C34.3214 56.0845 33.8212 56.3347 33.2828 56.4492C32.8765 56.5345 32.4612 56.5702 32.0462 56.5554C31.6309 56.5686 31.2154 56.533 30.8084 56.4492C30.3183 56.3416 29.6831 56.1503 29.208 55.7665C28.7178 55.3826 28.3978 54.8275 28.1414 54.1023C27.8851 53.3771 27.6938 52.5018 27.4375 50.7526C27.1812 49.0034 26.8398 46.4014 26.6273 44.4171C26.4147 42.4328 26.3284 41.0675 26.3109 40.1497C26.2934 39.2319 26.3322 38.7743 26.436 38.3367C26.5354 37.9185 26.7086 37.5213 26.9474 37.1639C27.1841 36.829 27.4724 36.5336 27.8013 36.2886C28.1031 36.0559 28.441 35.8743 28.8016 35.751C29.2414 35.5812 29.6959 35.4527 30.1595 35.3671C30.7134 35.2609 31.3536 35.1546 31.6824 35.1108C31.9116 35.062 32.1484 35.062 32.3776 35.1108L32.4914 35.0446Z" fill="white"/>
<defs>
<linearGradient id="paint0_linear_35_3" x1="32.2751" y1="64.8102" x2="31.7324" y2="-0.00249841" gradientUnits="userSpaceOnUse">
<stop stop-color="#822CBE"/>
<stop offset="1" stop-color="#D772FB"/>
</linearGradient>
</defs>
</svg>
