<svg width="688" height="263" viewBox="0 0 688 263" fill="none" xmlns="http://www.w3.org/2000/svg">
<path d="M301.8 144.5C301.325 144.6 300.625 145.025 300.2 145.4C298.6 146.925 294.975 153.825 293.125 158.85C289.1 169.75 288.3 182.575 290.9 194.225C292.4 200.95 295.35 208.05 298.9 213.575C300.175 215.525 301.175 216.25 302.7 216.25C305.025 216.25 306.5 214.875 306.7 212.6C306.8 211.35 306.725 211.125 305.4 208.9C301.45 202.275 299.025 195.575 297.85 187.875C297.275 184.125 297.275 176.85 297.85 172.9C298.975 165.125 301.85 157.225 305.725 151.25C306.5 150.05 306.625 149.675 306.625 148.325C306.625 146.475 306.125 145.65 304.5 144.8C303.325 144.225 303.1 144.2 301.8 144.5Z" fill="#040707"/>
<path d="M385 144.8C383.35 145.65 382.675 146.775 382.825 148.5C382.9 149.625 383.175 150.3 384.35 152.25C392.725 166.225 394.425 183.075 389 198.625C387.975 201.55 386.1 205.475 384.2 208.7C382.775 211.125 382.7 211.325 382.8 212.6C382.925 214.175 383.625 215.275 384.85 215.85C386.025 216.4 387.7 216.35 388.7 215.75C389.75 215.1 391.55 212.3 393.6 208.125C403.05 188.975 402.2 166.625 391.275 148.2C389.8 145.725 388.875 144.775 387.6 144.475C386.25 144.175 386.25 144.175 385 144.8Z" fill="#040707"/>
<path d="M340.375 147.4C334.75 148.55 329.625 153.075 327.6 158.675L326.875 160.625L326.8 176.925C326.725 195.175 326.7 194.95 328.5 198.625C330.7 203.15 335.125 206.725 340 207.85C342.075 208.35 345.925 208.35 348 207.85C352.875 206.725 357.3 203.15 359.5 198.625C361.3 194.95 361.275 195.175 361.2 177.05L361.125 160.875L360.375 158.75C357.5 150.5 348.925 145.65 340.375 147.4Z" fill="#040707"/>
<path d="M313.15 160.5C311 161.15 307.875 166.5 306.4 171.975C305.025 177.05 305.025 182.325 306.375 187.625C307.375 191.625 309.85 196.55 311.7 198.325C312.625 199.2 314.05 199.575 315.3 199.225C318.175 198.475 319.1 195.325 317.25 192.65C312.875 186.275 312.175 177.4 315.475 170.35C316 169.225 316.825 167.75 317.275 167.075C318.025 166.025 318.125 165.675 318.125 164.325C318.125 162.475 317.625 161.65 316 160.8C314.825 160.225 314.325 160.15 313.15 160.5Z" fill="#040707"/>
<path d="M374.675 160.6C373.375 161.075 372.85 161.6 372.35 162.9C371.775 164.4 372 165.4 373.35 167.575C375.825 171.55 376.825 174.975 376.85 179.625C376.875 184.525 375.95 187.875 373.4 192.075C371.975 194.4 371.775 195.35 372.375 196.9C373.225 199.125 376.025 200.05 378.075 198.775C379.125 198.125 380.6 195.925 382.1 192.75C386.05 184.4 385.9 174.525 381.725 166.225C380.325 163.4 378.875 161.325 378.05 160.9C376.95 160.325 375.7 160.225 374.675 160.6Z" fill="#040707"/>
<path d="M323.225 206.325C322.75 206.625 322.1 207.375 321.8 208C321.25 209.05 321.225 209.325 321.35 212C321.475 215.2 321.9 216.85 323.15 219.25C324.325 221.5 325.7 223.025 327.9 224.475C330.575 226.275 332.375 226.775 336.575 226.925L340 227.075V237.65V248.25H335.05C330.425 248.25 330.025 248.275 329 248.8C327.35 249.65 326.675 250.775 326.8 252.525C326.925 254.15 327.6 255.25 328.85 255.85C329.6 256.2 331.325 256.25 344 256.25C356.675 256.25 358.4 256.2 359.15 255.85C360.4 255.25 361.075 254.15 361.2 252.525C361.325 250.775 360.65 249.65 359 248.825C357.975 248.275 357.575 248.25 352.95 248.25H348V237.625V227H350.7C355.8 226.975 359.275 225.7 362.25 222.725C365.275 219.7 366.575 216.4 366.6 211.625C366.625 208.25 366.325 207.375 364.75 206.325C363.175 205.25 360.575 205.75 359.45 207.325C358.975 207.975 358.875 208.575 358.725 211C358.5 215.1 357.55 216.9 354.9 218.325C353.9 218.875 353.65 218.875 344 218.875C334.35 218.875 334.1 218.875 333.1 218.325C330.45 216.9 329.5 215.1 329.275 211C329.125 208.575 329.025 207.975 328.55 207.325C327.425 205.75 324.825 205.25 323.225 206.325Z" fill="#040707"/>
<g clip-path="url(#clip0_14_469)">
<path d="M159.5 0.300003C165.75 1.34999 169.65 2.75 173.5 5.3L175.5 6.64999L178.6 5.75C183.5 4.3 191.65 4.5 196.75 6.14999C206.85 9.45 214.75 17 218.3 26.65C222.3 37.8 219.9 48.7 212 54.95C210.65 56.05 209.25 57 208.95 57.1C208.5 57.25 208.65 58.4 209.45 61.4C210.05 63.65 210.8 68.15 211.1 71.4C211.5 75.8 213.05 83.05 217.35 100.95C223.55 126.8 223.5 126.25 220.6 128.5C219.5 129.4 218.55 129.5 212.2 129.5C207.75 129.5 205 129.7 205 130C205 132.15 202.4 159.75 202 161.65C200.05 171.05 190.5 178.25 181.05 177.35C179.5 177.2 172.6 175.6 165.7 173.8C158.8 172 153 170.5 152.8 170.5C152.65 170.5 152.5 176.2 152.5 183.2V195.85L156.5 197C158.7 197.65 160.5 198.3 160.5 198.45C160.5 198.6 147.6 211.65 131.85 227.4L103.25 256L51.7 255.9L0.149994 255.75L7.10001 245.75C10.9 240.25 16.2 232.5 18.85 228.5C25.9 217.9 31.25 211.55 37.75 206.05C39.95 204.2 51.95 194.95 64.35 185.55L87 168.45V149.6V130.8L84.3 128C82.8 126.5 80.95 124.15 80.15 122.8C78.9 120.6 78.45 120.25 75.5 119.3C69.55 117.35 64.05 113.3 61 108.5C59.5 106.15 56.3 98.5 56.7 98.15C56.8 98.05 65.95 101.25 77.05 105.3C90.7 110.25 97.9 112.65 99.3 112.65C101.85 112.65 104.4 111.25 105.65 109.15C106.5 107.65 112.9 74.5 113.75 67.2C114.45 61.05 112.1 50.8 108.65 45.15C107.7 43.6 107.1 42 107.2 41.65C107.35 41.3 114.15 33 122.3 23.25C137.05 5.59999 137.2 5.45 140.7 3.75C142.65 2.75 145.5 1.64999 147 1.25C149.85 0.449997 157.3 -0.100006 159.5 0.300003ZM176.7 88.8C174.35 89.9 172.8 92.6 172.8 95.6C172.8 97.5 173.1 98.35 174.35 99.85C176.15 102.15 178.2 102.95 182.3 102.95C186.9 103 188.45 102.55 190.5 100.5C192.55 98.45 193.2 96.05 192.45 93.35C191.95 91.5 189.9 89.15 188.25 88.45C186.4 87.7 178.55 87.95 176.7 88.8Z" fill="#040707"/>
<path d="M121.5 0.349997C121.5 0.749996 98.45 28.7 96.3 30.9C95.8 31.4 94.9 31.15 91.45 29.6C89.15 28.5 82.35 25.85 76.35 23.7C70.4 21.55 65.5 19.65 65.5 19.45C65.5 18.9 71.3 15.05 73.8 13.95C78.3 12 82.95 11 87.85 11H92.55L95.75 8.25C99.45 5.15 104.45 2.45 108.8 1.3C112.4 0.299995 121.5 -0.350004 121.5 0.349997Z" fill="#040707"/>
<path d="M50.25 30.2C69.2 37.15 85.4 43.15 86.25 43.6C94.95 48.25 99.8 57.85 98.45 67.85C97.5 75.05 93.65 94.7 93.2 94.85C92.45 95.1 46.25 78.15 43.3 76.6C39.15 74.35 35.8 69.6 34.5 64.1C34.05 62.2 34 59.35 34.25 54L34.6 46.5L32.45 45.55C21.7 40.95 18.4 38.45 15.95 33.3C14.7 30.7 14.5 29.65 14.5 26.2C14.5 21.75 14.95 17.5 15.45 17.55C15.6 17.55 31.25 23.25 50.25 30.2Z" fill="#040707"/>
<path d="M185.75 206.35C190.4 207.85 194.35 209.2 194.5 209.3C194.6 209.45 184.25 220 171.5 232.75L148.25 256H136.25H124.25L150.5 229.75C164.95 215.3 176.85 203.5 177 203.55C177.15 203.55 181.05 204.8 185.75 206.35Z" fill="#040707"/>
<path d="M214.4 217.25C223.55 222.15 233.05 229.8 239.85 237.7C241.7 239.9 246.15 244.9 249.65 248.85L256.05 256H212.65H169.25L189.75 235.5C201 224.2 210.25 215 210.25 215C210.25 215 212.1 216 214.4 217.25Z" fill="#040707"/>
</g>
<g clip-path="url(#clip1_14_469)">
<path d="M528.5 0.300003C522.25 1.34999 518.35 2.75 514.5 5.3L512.5 6.64999L509.4 5.75C504.5 4.3 496.35 4.5 491.25 6.14999C481.15 9.45 473.25 17 469.7 26.65C465.7 37.8 468.1 48.7 476 54.95C477.35 56.05 478.75 57 479.05 57.1C479.5 57.25 479.35 58.4 478.55 61.4C477.95 63.65 477.2 68.15 476.9 71.4C476.5 75.8 474.95 83.05 470.65 100.95C464.45 126.8 464.5 126.25 467.4 128.5C468.5 129.4 469.45 129.5 475.8 129.5C480.25 129.5 483 129.7 483 130C483 132.15 485.6 159.75 486 161.65C487.95 171.05 497.5 178.25 506.95 177.35C508.5 177.2 515.4 175.6 522.3 173.8C529.2 172 535 170.5 535.2 170.5C535.35 170.5 535.5 176.2 535.5 183.2V195.85L531.5 197C529.3 197.65 527.5 198.3 527.5 198.45C527.5 198.6 540.4 211.65 556.15 227.4L584.75 256L636.3 255.9L687.85 255.75L680.9 245.75C677.1 240.25 671.8 232.5 669.15 228.5C662.1 217.9 656.75 211.55 650.25 206.05C648.05 204.2 636.05 194.95 623.65 185.55L601 168.45V149.6V130.8L603.7 128C605.2 126.5 607.05 124.15 607.85 122.8C609.1 120.6 609.55 120.25 612.5 119.3C618.45 117.35 623.95 113.3 627 108.5C628.5 106.15 631.7 98.5 631.3 98.15C631.2 98.05 622.05 101.25 610.95 105.3C597.3 110.25 590.1 112.65 588.7 112.65C586.15 112.65 583.6 111.25 582.35 109.15C581.5 107.65 575.1 74.5 574.25 67.2C573.55 61.05 575.9 50.8 579.35 45.15C580.3 43.6 580.9 42 580.8 41.65C580.65 41.3 573.85 33 565.7 23.25C550.95 5.59999 550.8 5.45 547.3 3.75C545.35 2.75 542.5 1.64999 541 1.25C538.15 0.449997 530.7 -0.100006 528.5 0.300003ZM511.3 88.8C513.65 89.9 515.2 92.6 515.2 95.6C515.2 97.5 514.9 98.35 513.65 99.85C511.85 102.15 509.8 102.95 505.7 102.95C501.1 103 499.55 102.55 497.5 100.5C495.45 98.45 494.8 96.05 495.55 93.35C496.05 91.5 498.1 89.15 499.75 88.45C501.6 87.7 509.45 87.95 511.3 88.8Z" fill="#040707"/>
<path d="M566.5 0.349997C566.5 0.749996 589.55 28.7 591.7 30.9C592.2 31.4 593.1 31.15 596.55 29.6C598.85 28.5 605.65 25.85 611.65 23.7C617.6 21.55 622.5 19.65 622.5 19.45C622.5 18.9 616.7 15.05 614.2 13.95C609.7 12 605.05 11 600.15 11H595.45L592.25 8.25C588.55 5.15 583.55 2.45 579.2 1.3C575.6 0.299995 566.5 -0.350004 566.5 0.349997Z" fill="#040707"/>
<path d="M637.75 30.2C618.8 37.15 602.6 43.15 601.75 43.6C593.05 48.25 588.2 57.85 589.55 67.85C590.5 75.05 594.35 94.7 594.8 94.85C595.55 95.1 641.75 78.15 644.7 76.6C648.85 74.35 652.2 69.6 653.5 64.1C653.95 62.2 654 59.35 653.75 54L653.4 46.5L655.55 45.55C666.3 40.95 669.6 38.45 672.05 33.3C673.3 30.7 673.5 29.65 673.5 26.2C673.5 21.75 673.05 17.5 672.55 17.55C672.4 17.55 656.75 23.25 637.75 30.2Z" fill="#040707"/>
<path d="M502.25 206.35C497.6 207.85 493.65 209.2 493.5 209.3C493.4 209.45 503.75 220 516.5 232.75L539.75 256H551.75H563.75L537.5 229.75C523.05 215.3 511.15 203.5 511 203.55C510.85 203.55 506.95 204.8 502.25 206.35Z" fill="#040707"/>
<path d="M473.6 217.25C464.45 222.15 454.95 229.8 448.15 237.7C446.3 239.9 441.85 244.9 438.35 248.85L431.95 256H475.35H518.75L498.25 235.5C487 224.2 477.75 215 477.75 215C477.75 215 475.9 216 473.6 217.25Z" fill="#040707"/>
</g>
<defs>
<clipPath id="clip0_14_469">
<rect width="256" height="256" fill="white" transform="matrix(-1 0 0 1 256 0)"/>
</clipPath>
<clipPath id="clip1_14_469">
<rect width="256" height="256" fill="white" transform="translate(432)"/>
</clipPath>
</defs>
</svg>
