<svg width="27" height="28" viewBox="0 0 27 28" fill="none" xmlns="http://www.w3.org/2000/svg">
<g clip-path="url(#clip0_16_27)">
<path d="M1.5084 10.1549V21.8288C1.5084 24.0382 3.29517 25.825 5.50428 25.825H21.1625C23.3717 25.825 25.1584 24.0382 25.1584 21.8288V10.1958C21.7789 11.0793 17.7435 11.5926 13.4109 11.5926C9.01046 11.5926 4.91869 11.0634 1.5084 10.1549ZM0.00361191 5.26611C0.00122133 5.32834 1.71425e-05 5.39061 0 5.45288L0 22.5471C0 25.1852 2.14797 27.3332 4.78663 27.3332H21.8803C24.5189 27.3332 26.6667 25.1852 26.6667 22.5471V5.45288C26.6667 5.4207 26.6664 5.38833 26.6657 5.35628V9.76368C26.4648 9.82659 26.2609 9.88826 26.0544 9.94841V22.1544C26.0544 24.6719 24.0052 26.7212 21.4877 26.7212H5.17895C2.66151 26.7212 0.612185 24.6719 0.612185 22.1544V9.9029C0.405584 9.84157 0.201741 9.77879 0.000919394 9.71469V5.42602C0.000985065 5.37256 0.00183879 5.31917 0.00361191 5.26611Z" fill="url(#paint0_linear_16_27)"/>
<path d="M1.50839 6.16512C1.50839 3.96166 3.29517 2.16937 5.50427 2.16937H21.1625C23.3717 2.16937 25.1584 3.96166 25.1584 6.16512V21.829C25.1584 24.0384 23.3717 25.8252 21.1625 25.8252H5.50421C3.2951 25.8252 1.50833 24.0384 1.50833 21.829L1.50839 6.16512ZM0.612183 5.84543V22.1545C0.612183 24.672 2.66151 26.7213 5.17894 26.7213H21.4877C24.0052 26.7213 26.0544 24.672 26.0544 22.1545V5.84543C26.0544 3.32814 24.0052 1.27881 21.4877 1.27881H5.17894C2.66151 1.27881 0.612183 3.32814 0.612183 5.84543Z" fill="#8091C1"/>
<path d="M22.0989 0.666626H4.51704C4.39883 0.666626 4.28207 0.672602 4.16603 0.681468C1.87174 0.980663 0.0813555 2.91053 0.00360107 5.26607C0.102042 2.71391 2.21047 0.666626 4.78655 0.666626H21.8803C24.4866 0.666626 26.6141 2.76231 26.6657 5.35624V5.34698C26.6271 2.99629 24.8851 1.051 22.6225 0.697491C22.4506 0.67779 22.2761 0.666626 22.0989 0.666626" fill="#D6DDF0"/>
<path d="M21.1623 2.16931H5.50418C3.29508 2.16931 1.50831 3.96161 1.50831 6.16507V10.1549C4.91859 11.0634 9.01027 11.5926 13.4106 11.5926C17.7432 11.5926 21.7785 11.0793 25.1581 10.1958V6.16514C25.1582 3.96168 23.3715 2.16931 21.1623 2.16931ZM21.8801 0.666626H4.78653C2.21047 0.666626 0.102044 2.71392 0.00360339 5.2661C0.00189595 5.31916 0.000976562 5.37255 0.000976562 5.42601V9.71466C0.204069 9.77953 0.407834 9.84227 0.612239 9.90288V5.84545C0.612239 3.32815 2.66156 1.27881 5.17898 1.27881H21.4877C24.0052 1.27881 26.0544 3.32815 26.0544 5.84545V9.94845C26.2588 9.88894 26.4625 9.82736 26.6657 9.76372V5.35627C26.614 2.76232 24.4865 0.666626 21.8801 0.666626Z" fill="url(#paint1_linear_16_27)"/>
<path d="M21.4877 1.27881H5.17894C2.66151 1.27881 0.612183 3.32815 0.612183 5.84546V9.90289C0.9097 9.99111 1.20844 10.0751 1.50833 10.1549V6.16514C1.50833 3.96168 3.2951 2.16938 5.50421 2.16938H21.1624C23.3716 2.16938 25.1583 3.96168 25.1583 6.16514V10.1959C25.4582 10.1176 25.7569 10.0351 26.0545 9.94853V5.84546C26.0544 3.32815 24.0052 1.27881 21.4877 1.27881Z" fill="#8D9FCB"/>
<path d="M20.4882 7.87103H22.1977V4.4115H18.4914C16.2405 4.4115 14.4157 6.23622 14.4157 8.48715V10.5568H11.4919V14.0163H14.4157V24.6688H18.9626V14.0163H22.1975V10.5568H18.9626V9.39622C18.9629 8.55393 19.6458 7.87103 20.4882 7.87103Z" fill="white"/>
</g>
<defs>
<linearGradient id="paint0_linear_16_27" x1="8.64851" y1="8.8104" x2="19.6256" y2="23.2865" gradientUnits="userSpaceOnUse">
<stop stop-color="#455E9B"/>
<stop offset="1" stop-color="#5A70B3"/>
</linearGradient>
<linearGradient id="paint1_linear_16_27" x1="12.4846" y1="5.90146" x2="23.4619" y2="20.3775" gradientUnits="userSpaceOnUse">
<stop stop-color="#697BB0"/>
<stop offset="1" stop-color="#7688C2"/>
</linearGradient>
<clipPath id="clip0_16_27">
<rect width="26.6667" height="26.6667" fill="white" transform="translate(0 0.666626)"/>
</clipPath>
</defs>
</svg>
