<svg width="64" height="64" viewBox="0 0 64 64" fill="none" xmlns="http://www.w3.org/2000/svg">
<path d="M8 29.8181V34.1819C8 36.391 6.20913 38.1819 4 38.1819C1.79087 38.1819 0 36.391 0 34.1819V29.8181C0 27.609 1.79087 25.8181 4 25.8181C6.20913 25.8181 8 27.609 8 29.8181Z" fill="#0066D9"/>
<path d="M56.0016 29.9319C56.0006 29.894 56 29.8561 56 29.8181C56 27.609 57.7909 25.8181 60 25.8181C62.2091 25.8181 64 27.609 64 29.8181C64 29.8561 63.9995 29.8941 63.9984 29.9319H64V34.2955H63.9984C63.9384 36.452 62.1711 38.1818 60 38.1818C57.8289 38.1818 56.0618 36.452 56.0016 34.2955H56V29.9318H56.0016V29.9319Z" fill="#4285F4"/>
<path d="M21.8181 42.9091V47.2727C21.8181 49.4819 20.0274 51.2727 17.8181 51.2727C15.6089 51.2727 13.8181 49.4819 13.8181 47.2727V42.909C13.8181 40.7 15.609 38.909 17.8181 38.909C20.0272 38.909 21.8181 40.7 21.8181 42.909V42.9091ZM21.8181 16.7272V31H21.8171C21.7689 33.1671 19.9969 34.9091 17.8181 34.9091C15.6394 34.9091 13.8675 33.1671 13.8192 31H13.8181V16.7272C13.8181 14.5181 15.609 12.7272 17.8181 12.7272C20.0272 12.7272 21.8181 14.5181 21.8181 16.7272Z" fill="#EA4335"/>
<path d="M42.1819 21.0909C42.1819 23.3 43.9726 25.0909 46.1819 25.0909C48.3911 25.0909 50.1819 23.3 50.1819 21.0909V16.7272C50.1819 14.5181 48.391 12.7272 46.1819 12.7272C43.9727 12.7272 42.1819 14.5181 42.1819 16.7272V21.0909Z" fill="#34A853"/>
<path d="M28 8.36375C28 10.5728 29.7909 12.3638 32 12.3638C34.2091 12.3638 36 10.5728 36 8.36375V4C36 1.79087 34.2091 0 32 0C29.7909 0 28 1.79087 28 4V8.36375ZM28 55.6362C28 53.4272 29.7909 51.6362 32 51.6362C34.2091 51.6362 36 53.4272 36 55.6362V60C36 62.2091 34.2091 64 32 64C29.7909 64 28 62.2091 28 60V55.6362Z" fill="#FAB908"/>
<path d="M42.1819 33.0909C42.1819 30.8818 43.9726 29.0909 46.1819 29.0909C48.3911 29.0909 50.1819 30.8818 50.1819 33.0909V47.2728C50.1819 49.4819 48.391 51.2728 46.1819 51.2728C43.9727 51.2728 42.1819 49.4819 42.1819 47.2728V33.0909Z" fill="#34A853"/>
<path d="M36 20.3638V43.6363C36 45.8455 34.2091 47.6363 32 47.6363C29.7909 47.6363 28 45.8455 28 43.6363V20.3638C28 18.1545 29.7909 16.3638 32 16.3638C34.2091 16.3638 36 18.1545 36 20.3638Z" fill="#FAB908"/>
</svg>
