<?xml version="1.0" standalone="no"?>
<!DOCTYPE svg PUBLIC "-//W3C//DTD SVG 20010904//EN"
 "http://www.w3.org/TR/2001/REC-SVG-20010904/DTD/svg10.dtd">
<svg version="1.0" xmlns="http://www.w3.org/2000/svg"
 width="512.000000pt" height="512.000000pt" viewBox="0 0 512.000000 512.000000"
 preserveAspectRatio="xMidYMid meet">

<g transform="translate(0.000000,512.000000) scale(0.100000,-0.100000)"
fill="#000000" stroke="none">
<path d="M630 5115 c0 -3 72 -150 161 -326 145 -291 162 -321 182 -317 16 3
1568 564 1584 573 1 0 -3 18 -9 38 l-11 37 -954 0 c-524 0 -953 -2 -953 -5z"/>
<path d="M1875 4478 c-424 -154 -772 -282 -775 -285 -4 -4 152 -323 159 -323
22 0 1521 556 1521 564 0 25 -115 326 -125 326 -5 -1 -356 -127 -780 -282z"/>
<path d="M4038 4027 c-387 -141 -688 -255 -688 -262 0 -6 24 -76 54 -156 34
-93 58 -144 67 -143 8 1 258 90 557 198 601 218 569 202 636 321 46 80 68 160
64 232 l-3 59 -687 -249z"/>
<path d="M2780 4104 c-52 -19 -386 -141 -742 -271 l-647 -235 300 -600 299
-599 -135 -151 c-75 -83 -134 -156 -132 -163 3 -6 161 -267 351 -579 190 -312
346 -571 346 -574 0 -7 -257 -102 -275 -102 -6 0 -151 232 -324 514 l-314 515
-46 -51 c-212 -235 -441 -494 -441 -498 1 -3 136 -108 302 -235 166 -126 344
-262 395 -301 l92 -71 -167 -61 c-93 -34 -171 -57 -177 -53 -5 5 -147 113
-315 241 -168 128 -311 237 -318 243 -9 7 -20 3 -40 -16 -16 -15 -110 -59
-231 -107 -254 -101 -267 -108 -320 -165 -63 -69 -85 -124 -86 -220 0 -66 5
-90 26 -136 71 -151 224 -223 386 -181 l72 18 -20 -28 c-75 -105 21 -254 147
-230 16 3 772 277 1679 608 1516 554 1652 606 1677 636 53 62 46 151 -16 206
-69 60 -76 59 -496 -96 -8 -3 10 17 41 46 99 91 138 221 104 347 -10 37 -23
65 -30 65 -7 0 -180 -61 -384 -135 -258 -94 -384 -135 -414 -135 -47 0 -97 26
-121 62 -30 46 -265 707 -280 788 -36 187 -4 376 91 543 104 184 252 303 476
382 42 15 77 33 77 39 -1 22 -277 770 -286 772 -5 2 -52 -13 -104 -32z"/>
<path d="M4040 3361 c-509 -185 -948 -349 -977 -365 -101 -55 -191 -164 -235
-281 -17 -48 -22 -81 -22 -170 l0 -110 101 -275 c55 -151 105 -276 110 -277
12 -4 1130 400 1183 427 99 51 204 172 243 280 43 116 40 222 -9 471 -5 26 0
28 127 79 72 29 158 71 190 93 107 71 195 205 218 331 13 69 14 136 4 135 -5
-1 -424 -153 -933 -338z"/>
<path d="M3970 859 c-14 -6 -37 -22 -52 -36 -50 -47 -52 -71 -24 -295 14 -112
28 -251 31 -310 8 -125 24 -162 81 -195 77 -44 166 -16 205 64 20 42 21 49 10
196 -19 252 -50 467 -74 509 -34 61 -115 92 -177 67z"/>
<path d="M3415 656 c-40 -18 -73 -56 -85 -96 -6 -22 -5 -80 6 -179 8 -80 17
-176 20 -213 4 -45 13 -78 27 -100 61 -90 182 -87 251 5 18 24 20 41 18 123
-3 127 -29 347 -46 388 -28 67 -124 103 -191 72z"/>
</g>
</svg>
