<svg width="27" height="28" viewBox="0 0 27 28" fill="none" xmlns="http://www.w3.org/2000/svg">
<g clip-path="url(#clip0_16_34)">
<path d="M6.76197 27.239C5.17609 27.1669 4.3146 26.9029 3.74159 26.6794C2.98234 26.3838 2.44103 26.0319 1.87119 25.4629C1.30135 24.8938 0.948673 24.3525 0.65464 23.5933C0.431143 23.0203 0.167226 22.1588 0.0951051 20.5729C0.0158508 18.8586 0 18.3443 0 14.0011C0 9.65802 0.0174359 9.14445 0.0943125 7.4286C0.166434 5.84272 0.431935 4.98281 0.653847 4.40822C0.949466 3.64896 1.30215 3.10766 1.8704 2.53703C2.43944 1.96798 2.98075 1.61451 3.7408 1.32047C4.31381 1.09698 5.1753 0.83306 6.76118 0.760938C8.47624 0.682477 8.99139 0.666626 13.3329 0.666626C17.6761 0.666626 18.1896 0.684062 19.9055 0.760938C21.4914 0.83306 22.3513 1.09856 22.9259 1.32047C23.6851 1.61451 24.2264 1.96798 24.7963 2.53703C25.3661 3.10607 25.7172 3.64817 26.0128 4.40743C26.2363 4.98043 26.5002 5.84193 26.5724 7.4278C26.6508 9.14366 26.6667 9.65722 26.6667 14.0004C26.6667 18.3419 26.6508 18.8571 26.5724 20.5729C26.5002 22.1588 26.2347 23.0203 26.0128 23.5933C25.7172 24.3525 25.3653 24.8938 24.7963 25.4629C24.2272 26.0319 23.6851 26.3838 22.9259 26.6794C22.3529 26.9029 21.4914 27.1669 19.9055 27.239C18.1912 27.3174 17.6761 27.3333 13.3329 27.3333C8.99139 27.3333 8.47624 27.3182 6.76197 27.239Z" fill="url(#paint0_radial_16_34)"/>
<path d="M6.76197 27.239C5.17609 27.1669 4.3146 26.9029 3.74159 26.6794C2.98234 26.3838 2.44103 26.0319 1.87119 25.4629C1.30135 24.8938 0.948673 24.3525 0.65464 23.5933C0.431143 23.0203 0.167226 22.1588 0.0951051 20.5729C0.0158508 18.8586 0 18.3443 0 14.0011C0 9.65802 0.0174359 9.14445 0.0943125 7.4286C0.166434 5.84272 0.431935 4.98281 0.653847 4.40822C0.949466 3.64896 1.30215 3.10766 1.8704 2.53703C2.43944 1.96798 2.98075 1.61451 3.7408 1.32047C4.31381 1.09698 5.1753 0.83306 6.76118 0.760938C8.47624 0.682477 8.99139 0.666626 13.3329 0.666626C17.6761 0.666626 18.1896 0.684062 19.9055 0.760938C21.4914 0.83306 22.3513 1.09856 22.9259 1.32047C23.6851 1.61451 24.2264 1.96798 24.7963 2.53703C25.3661 3.10607 25.7172 3.64817 26.0128 4.40743C26.2363 4.98043 26.5002 5.84193 26.5724 7.4278C26.6508 9.14366 26.6667 9.65722 26.6667 14.0004C26.6667 18.3419 26.6508 18.8571 26.5724 20.5729C26.5002 22.1588 26.2347 23.0203 26.0128 23.5933C25.7172 24.3525 25.3653 24.8938 24.7963 25.4629C24.2272 26.0319 23.6851 26.3838 22.9259 26.6794C22.3529 26.9029 21.4914 27.1669 19.9055 27.239C18.1912 27.3174 17.6761 27.3333 13.3329 27.3333C8.99139 27.3333 8.47624 27.3182 6.76197 27.239Z" fill="url(#paint1_radial_16_34)"/>
<path d="M10.0593 14.0567C10.0593 12.233 11.5373 10.7542 13.361 10.7542C15.1848 10.7542 16.6636 12.233 16.6636 14.0567C16.6636 15.8804 15.1848 17.3592 13.361 17.3592C11.5373 17.3592 10.0593 15.8804 10.0593 14.0567ZM8.27404 14.0567C8.27404 16.8663 10.5515 19.1437 13.361 19.1437C16.1706 19.1437 18.448 16.8663 18.448 14.0567C18.448 11.2472 16.1706 8.96976 13.361 8.96976C10.5515 8.96976 8.27412 11.247 8.27412 14.0567H8.27404ZM17.4607 8.76806C17.4606 9.00318 17.5302 9.23305 17.6608 9.4286C17.7913 9.62415 17.9769 9.7766 18.1941 9.86667C18.4113 9.95673 18.6503 9.98037 18.881 9.93459C19.1116 9.88881 19.3235 9.77567 19.4898 9.60948C19.6561 9.44329 19.7694 9.23151 19.8154 9.00093C19.8613 8.77034 19.8379 8.5313 19.748 8.31404C19.6581 8.09678 19.5058 7.91105 19.3104 7.78034C19.1149 7.64964 18.8851 7.57982 18.65 7.57973H18.6495C18.3343 7.57988 18.0321 7.70511 17.8092 7.92792C17.5863 8.15073 17.461 8.4529 17.4607 8.76806ZM9.35871 22.1206C8.39284 22.0767 7.86786 21.9158 7.51899 21.7799C7.05646 21.5998 6.72645 21.3853 6.37947 21.0388C6.0325 20.6923 5.81772 20.3626 5.63845 19.9001C5.50245 19.5514 5.34156 19.0263 5.29765 18.0604C5.24963 17.0161 5.24004 16.7025 5.24004 14.0569C5.24004 11.4113 5.25042 11.0985 5.29765 10.0534C5.34164 9.08753 5.50371 8.56343 5.63845 8.21368C5.81851 7.75115 6.03297 7.42114 6.37947 7.07417C6.72597 6.7272 7.05567 6.51242 7.51899 6.33315C7.8677 6.19715 8.39284 6.03626 9.35871 5.99236C10.403 5.94433 10.7166 5.93474 13.361 5.93474C16.0054 5.93474 16.3194 5.94496 17.3646 5.99251C18.3304 6.0365 18.8545 6.19857 19.2043 6.33331C19.6668 6.51258 19.9968 6.72783 20.3438 7.07433C20.6908 7.42083 20.9048 7.75131 21.0848 8.21384C21.2208 8.56255 21.3817 9.08769 21.4256 10.0536C21.4736 11.0987 21.4832 11.4115 21.4832 14.0571C21.4832 16.7026 21.4736 17.0154 21.4256 18.0606C21.3816 19.0264 21.2199 19.5514 21.0848 19.9003C20.9048 20.3628 20.6903 20.6928 20.3438 21.039C19.9973 21.3852 19.6668 21.5999 19.2043 21.78C18.8556 21.916 18.3304 22.0769 17.3646 22.1208C16.3203 22.1688 16.0066 22.1784 13.361 22.1784C10.7155 22.1784 10.4026 22.1688 9.35871 22.1208V22.1206ZM9.27668 4.21002C8.22205 4.25805 7.50139 4.42527 6.87204 4.67017C6.22065 4.92307 5.66848 5.26235 5.11711 5.81285C4.56574 6.36334 4.22733 6.91558 3.97443 7.56776C3.72953 8.19751 3.56231 8.91777 3.51428 9.9724C3.46546 11.0287 3.45428 11.3664 3.45428 14.0567C3.45428 16.7471 3.46546 17.0848 3.51428 18.1411C3.56231 19.1958 3.72953 19.916 3.97443 20.5457C4.22733 21.1971 4.56582 21.7504 5.11711 22.3006C5.6684 22.8509 6.21985 23.1897 6.87204 23.4433C7.50258 23.6882 8.22205 23.8554 9.27668 23.9035C10.3335 23.9515 10.6707 23.9635 13.361 23.9635C16.0514 23.9635 16.3891 23.9523 17.4454 23.9035C18.5001 23.8554 19.2203 23.6882 19.85 23.4433C20.5014 23.1897 21.0536 22.8511 21.605 22.3006C22.1563 21.7501 22.494 21.1971 22.7476 20.5457C22.9925 19.916 23.1606 19.1957 23.2078 18.1411C23.2558 17.084 23.267 16.7471 23.267 14.0567C23.267 11.3664 23.2558 11.0287 23.2078 9.9724C23.1598 8.91769 22.9925 8.19711 22.7476 7.56776C22.494 6.91638 22.1555 6.36421 21.605 5.81285C21.0545 5.26148 20.5014 4.92307 19.8508 4.67017C19.2203 4.42527 18.5 4.25725 17.4462 4.21002C16.3897 4.16175 16.0522 4.15002 13.3622 4.15002C10.6723 4.15002 10.3339 4.1612 9.27708 4.21002" fill="white"/>
</g>
<defs>
<radialGradient id="paint0_radial_16_34" cx="0" cy="0" r="1" gradientUnits="userSpaceOnUse" gradientTransform="translate(1.72584 26.7491) scale(33.8568)">
<stop offset="0.09" stop-color="#FA8F21"/>
<stop offset="0.78" stop-color="#D82D7E"/>
</radialGradient>
<radialGradient id="paint1_radial_16_34" cx="0" cy="0" r="1" gradientUnits="userSpaceOnUse" gradientTransform="translate(18.4711 25.8928) scale(29.7943)">
<stop offset="0.64" stop-color="#8C3AAA" stop-opacity="0"/>
<stop offset="1" stop-color="#8C3AAA"/>
</radialGradient>
<clipPath id="clip0_16_34">
<rect width="26.6667" height="26.6667" fill="white" transform="translate(0 0.666626)"/>
</clipPath>
</defs>
</svg>
