<svg width="32" height="32" viewBox="0 0 32 32" fill="none" xmlns="http://www.w3.org/2000/svg">
<g clip-path="url(#clip0_28_2)">
<path d="M2.38752 3.08125C1.90002 3.56875 1.50002 4 1.50002 4.03125C1.50002 4.06875 2.38127 4.975 3.46252 6.05625L5.42503 8.01875L4.85003 8.5C2.97502 10.0875 1.34377 12.2625 0.331274 14.525L-0.00622559 15.2687L0.256274 15.8687C1.78127 19.3437 4.40628 22.2062 7.78128 24.075C11.45 26.1 16.0125 26.7 20.0938 25.6812C20.6375 25.5437 22.1 25.0812 22.25 24.9937C22.3188 24.9562 22.925 25.525 24.7813 27.375L27.2188 29.8125L28.1438 28.8875L29.0625 27.9687L16.1688 15.075L3.28127 2.1875L2.38752 3.08125ZM10.6375 13.2312L11.7375 14.3437L11.675 14.75C11.5563 15.55 11.6938 16.3125 12.0938 17.1562C12.6375 18.2812 13.525 19.0562 14.7188 19.4437C15.0875 19.5625 15.2938 19.5875 16.0813 19.5937H17L18.0938 20.6875L19.1875 21.775L18.7 21.975C16.9813 22.6875 15.0625 22.7062 13.3313 22.0312C10.9938 21.1125 9.26878 18.9875 8.83753 16.4937C8.68753 15.625 8.74378 14.3562 8.96253 13.5375C9.11878 12.95 9.43753 12.125 9.50003 12.125C9.51878 12.125 10.0313 12.625 10.6375 13.2312Z" fill="#CE7829"/>
<path d="M14.1562 4.46875C13.1562 4.58125 12.0062 4.81875 11.0937 5.1C10.6812 5.225 10.325 5.35 10.3 5.36875C10.275 5.39375 10.95 6.10625 11.8062 6.9625L13.3562 8.5125L13.8812 8.34375C15.6437 7.7875 17.4687 7.925 19.1625 8.75C21.6625 9.9625 23.25 12.4875 23.25 15.2562C23.25 16.0187 23.125 16.825 22.9062 17.4625L22.7562 17.9062L24.8625 20.0125C26.0187 21.175 27 22.125 27.0437 22.125C27.1687 22.125 28.8687 20.3937 29.3812 19.75C30.3375 18.55 31.15 17.2062 31.7687 15.8125L32.0062 15.275L31.725 14.6437C31.15 13.35 30.2937 11.9375 29.4 10.8125C28.825 10.0875 27.35 8.625 26.625 8.06875C24.1625 6.15625 21.5125 5.01875 18.4875 4.55625C17.3937 4.3875 15.2125 4.34375 14.1562 4.46875Z" fill="#CE7829"/>
<path d="M18.0313 13.1875C19.2688 14.425 20.3063 15.4375 20.3375 15.4375C20.3938 15.4375 20.35 14.8562 20.2438 14.3125C20.1563 13.8562 19.7563 13.0125 19.4375 12.6062C18.6625 11.6125 17.3438 10.9375 16.1938 10.9375H15.7812L18.0313 13.1875Z" fill="#CE7829"/>
</g>
<defs>
<clipPath id="clip0_28_2">
<rect width="32" height="32" fill="white"/>
</clipPath>
</defs>
</svg>
