<svg width="128" height="128" viewBox="0 0 128 128" fill="none" xmlns="http://www.w3.org/2000/svg">
<path d="M59.4998 0.150093C59.0248 0.200096 57.5498 0.375099 56.2498 0.500099C50.4998 1.1251 43.2498 3.15009 37.5498 5.7001C31.9248 8.2251 25.4498 12.5251 20.9498 16.7251C9.34978 27.5001 2.52478 40.6501 0.449778 56.2501C0.0497781 59.2751 0.0497781 68.6251 0.474778 71.7501C1.94978 82.9501 6.19978 93.5751 12.6748 102.125C14.0498 103.95 14.5748 104.45 15.3748 104.725C18.1748 105.675 20.9748 103.15 20.2248 100.375C20.0998 99.9251 19.3498 98.6501 18.5748 97.5751C12.5248 89.1501 8.59978 79.0001 7.84978 69.9251L7.67478 67.7501H11.4248H15.1998L15.3498 69.4251C15.8998 74.6501 17.5498 80.3251 20.0248 85.4001C22.6748 90.8251 25.7248 95.0001 30.2748 99.3501C37.7748 106.525 47.0248 111.05 57.3748 112.525C60.3248 112.95 67.7748 112.95 70.6248 112.525C79.3998 111.225 87.3498 107.85 94.0998 102.575L95.8498 101.225L98.4248 103.8C99.8498 105.2 101 106.45 101 106.525C101 106.8 97.7998 109.3 95.3748 110.925C88.1748 115.725 80.5748 118.65 71.8748 119.925C68.4248 120.425 60.0748 120.5 56.7498 120.025C47.4748 118.75 38.7248 115.325 31.3998 110.075C30.1748 109.2 28.7498 108.375 28.2498 108.225C26.2498 107.625 23.9998 109.1 23.6248 111.225C23.3498 112.95 24.0998 114.075 26.8248 116.025C35.4748 122.225 45.1498 126 56.3748 127.55C59.3248 127.95 68.7248 127.95 71.7498 127.55C85.2248 125.75 97.6498 120.05 107.05 111.275C115.575 103.375 121.275 94.6001 124.75 84.0001C127.025 77.1501 127.85 71.7251 127.85 64.0001C127.85 58.3001 127.625 55.7751 126.6 50.7501C123.075 33.5251 112.025 18.1501 96.4998 8.90009C89.2748 4.5751 80.6498 1.6251 71.9998 0.500099C69.7998 0.200096 61.0498 -0.0249023 59.4998 0.150093ZM69.2498 7.77509C93.9498 10.0251 114.475 28.4751 119.35 52.8001C121.95 65.7001 119.875 79.5501 113.65 90.8751C111.65 94.5501 107.1 101 106.525 101C106.45 101 105.2 99.8501 103.8 98.4251L101.225 95.8501L102.575 94.1001C106.85 88.6501 110.075 81.9501 111.6 75.3751C112.575 71.2001 112.85 68.6251 112.85 63.7501C112.85 58.8501 112.525 56.3001 111.375 51.7251C108.325 39.7251 100.35 28.9751 89.5748 22.2751C75.5248 13.5751 57.4998 12.6751 42.6248 19.9751C39.1498 21.6751 35.1998 24.2001 34.6248 25.0751C33.2498 27.2001 34.4248 30.1501 36.8998 30.7001C38.2248 31.0001 39.1498 30.6751 41.6748 29.0751C46.6748 25.8501 53.2998 23.4251 58.5998 22.8751L60.2498 22.7001V26.4501V30.2251L59.0748 30.3751C57.1748 30.6251 53.3748 31.6751 51.2998 32.5251C45.6248 34.7751 40.4248 38.8001 36.7248 43.8001C26.6998 57.3251 28.0998 76.0751 39.9998 88.0001C45.3498 93.3251 52.0248 96.6251 59.4998 97.6251C70.0248 99.0501 80.4498 95.5251 87.9998 88.0001C93.3248 82.6501 96.6248 75.9751 97.6248 68.5001C98.3248 63.4501 97.9748 61.7501 95.9998 60.7501C95.0998 60.3001 94.5498 60.2501 88.7998 60.2501H82.5748L82.2748 58.9251C81.8498 57.0751 80.2248 53.8751 78.7498 52.0751C76.3248 49.0751 72.4998 46.6001 68.7498 45.6001C66.4748 44.9751 61.4748 44.9751 59.2498 45.5751C53.9498 47.0251 49.4498 50.7251 47.0248 55.6251C45.7498 58.1751 45.2748 60.0251 45.0748 63.0001C44.5248 72.0751 50.6498 80.2001 59.7498 82.5251C61.6998 83.0251 66.4498 82.9501 68.4998 82.4251C69.3748 82.1751 70.3748 81.7251 70.6998 81.4251C72.5998 79.6501 72.3748 76.8501 70.1998 75.4751C69.4748 75.0251 69.1498 75.0001 67.6248 75.1501C62.9998 75.6251 60.6748 75.3001 58.2248 73.8501C51.7748 70.0001 50.6498 61.1001 55.9498 55.9001C61.2748 50.6501 70.0248 51.8001 73.8498 58.2251C75.2748 60.6501 75.5248 62.3251 75.2248 67.5501C75.1498 68.9501 75.1998 69.3251 75.6498 69.9251C77.6248 72.5751 81.7998 71.7751 82.3998 68.6001L82.5498 67.7501H86.3998H90.2498L90.0998 68.5501C89.5248 71.8001 87.9498 75.7251 86.1248 78.5251C84.4248 81.1251 80.3498 85.0751 77.7998 86.6001C71.1248 90.5751 63.2998 91.5001 55.9998 89.2001C51.9748 87.9251 48.8998 86.1001 45.8248 83.1501C36.0498 73.9001 34.7748 59.0501 42.7748 48.2251C45.0748 45.1251 48.8748 41.9251 52.3748 40.1751C55.9748 38.4001 61.2498 37.3251 65.2998 37.6001C73.3998 38.1251 80.0248 41.6251 85.0498 48.0001C85.8748 49.0251 86.8748 50.0751 87.3248 50.3001C88.9998 51.2501 91.1998 50.6251 92.2748 48.9501C92.6498 48.3251 92.7498 47.8251 92.6748 46.8251C92.5998 45.7251 92.3998 45.2751 91.1748 43.6751C86.0998 36.9251 78.7998 32.3501 70.5248 30.7001L67.7498 30.1751V26.4251V22.7001L69.1998 22.8751C73.6748 23.4001 77.9248 24.7001 82.3748 26.9001C86.6248 29.0251 89.7498 31.2501 93.1498 34.6251C104.4 45.8251 108.3 62.0251 103.35 77.0001C99.8748 87.5251 92.1498 96.3751 82.1248 101.25C72.4498 106 61.2748 106.75 50.9998 103.35C38.6248 99.2751 28.7248 89.3751 24.6498 77.0001C20.7498 65.2001 22.3748 52.1001 28.9998 41.7751C30.6748 39.1501 30.9998 38.2501 30.6998 36.9001C30.1498 34.4251 27.1998 33.2501 25.0748 34.6251C24.2748 35.1501 21.7498 39.0001 20.2498 42.0001C17.8248 46.8501 16.0498 52.6251 15.4748 57.6001L15.1498 60.2501H11.4248H7.67478L7.84978 58.1751C8.52478 50.3501 11.6498 41.1751 16.0498 34.1501C27.4498 15.9501 47.8998 5.8251 69.2498 7.77509Z" fill="black"/>
</svg>
