<svg width="256" height="256" viewBox="0 0 256 256" fill="none" xmlns="http://www.w3.org/2000/svg">
<path d="M119 0.299988C118.05 0.399994 115.1 0.75 112.5 1C101 2.25 86.5 6.29999 75.1 11.4C63.85 16.45 50.9 25.05 41.9 33.45C18.7 55 5.05004 81.3 0.900044 112.5C0.100044 118.55 0.100044 137.25 0.950044 143.5C3.90004 165.9 12.4 187.15 25.35 204.25C28.1 207.9 29.15 208.9 30.75 209.45C36.35 211.35 41.95 206.3 40.45 200.75C40.2 199.85 38.7 197.3 37.15 195.15C25.05 178.3 17.2 158 15.7 139.85L15.35 135.5H22.85H30.4L30.7 138.85C31.8 149.3 35.1 160.65 40.05 170.8C45.35 181.65 51.45 190 60.55 198.7C75.55 213.05 94.05 222.1 114.75 225.05C120.65 225.9 135.55 225.9 141.25 225.05C158.8 222.45 174.7 215.7 188.2 205.15L191.7 202.45L196.85 207.6C199.7 210.4 202 212.9 202 213.05C202 213.6 195.6 218.6 190.75 221.85C176.35 231.45 161.15 237.3 143.75 239.85C136.85 240.85 120.15 241 113.5 240.05C94.95 237.5 77.45 230.65 62.8 220.15C60.35 218.4 57.5 216.75 56.5 216.45C52.5 215.25 48 218.2 47.25 222.45C46.7 225.9 48.2 228.15 53.65 232.05C70.95 244.45 90.3 252 112.75 255.1C118.65 255.9 137.45 255.9 143.5 255.1C170.45 251.5 195.3 240.1 214.1 222.55C231.15 206.75 242.55 189.2 249.5 168C254.05 154.3 255.7 143.45 255.7 128C255.7 116.6 255.25 111.55 253.2 101.5C246.15 67.05 224.05 36.3 193 17.8C178.55 9.14999 161.3 3.25 144 1C139.6 0.399994 122.1 -0.0500031 119 0.299988ZM138.5 15.55C187.9 20.05 228.95 56.95 238.7 105.6C243.9 131.4 239.75 159.1 227.3 181.75C223.3 189.1 214.2 202 213.05 202C212.9 202 210.4 199.7 207.6 196.85L202.45 191.7L205.15 188.2C213.7 177.3 220.15 163.9 223.2 150.75C225.15 142.4 225.7 137.25 225.7 127.5C225.7 117.7 225.05 112.6 222.75 103.45C216.65 79.45 200.7 57.95 179.15 44.55C151.05 27.15 115 25.35 85.25 39.95C78.3 43.35 70.4 48.4 69.25 50.15C66.5 54.4 68.85 60.3 73.8 61.4C76.45 62 78.3 61.35 83.35 58.15C93.35 51.7 106.6 46.85 117.2 45.75L120.5 45.4V52.9V60.45L118.15 60.75C114.35 61.25 106.75 63.35 102.6 65.05C91.25 69.55 80.85 77.6 73.45 87.6C53.4 114.65 56.2 152.15 80 176C90.7 186.65 104.05 193.25 119 195.25C140.05 198.1 160.9 191.05 176 176C186.65 165.3 193.25 151.95 195.25 137C196.65 126.9 195.95 123.5 192 121.5C190.2 120.6 189.1 120.5 177.6 120.5H165.15L164.55 117.85C163.7 114.15 160.45 107.75 157.5 104.15C152.65 98.15 145 93.2 137.5 91.2C132.95 89.95 122.95 89.95 118.5 91.15C107.9 94.05 98.9 101.45 94.05 111.25C91.5 116.35 90.55 120.05 90.15 126C89.05 144.15 101.3 160.4 119.5 165.05C123.4 166.05 132.9 165.9 137 164.85C138.75 164.35 140.75 163.45 141.4 162.85C145.2 159.3 144.75 153.7 140.4 150.95C138.95 150.05 138.3 150 135.25 150.3C126 151.25 121.35 150.6 116.45 147.7C103.55 140 101.3 122.2 111.9 111.8C122.55 101.3 140.05 103.6 147.7 116.45C150.55 121.3 151.05 124.65 150.45 135.1C150.3 137.9 150.4 138.65 151.3 139.85C155.25 145.15 163.6 143.55 164.8 137.2L165.1 135.5H172.8H180.5L180.2 137.1C179.05 143.6 175.9 151.45 172.25 157.05C168.85 162.25 160.7 170.15 155.6 173.2C142.25 181.15 126.6 183 112 178.4C103.95 175.85 97.8 172.2 91.65 166.3C72.1 147.8 69.55 118.1 85.55 96.45C90.15 90.25 97.75 83.85 104.75 80.35C111.95 76.8 122.5 74.65 130.6 75.2C146.8 76.25 160.05 83.25 170.1 96C171.75 98.05 173.75 100.15 174.65 100.6C178 102.5 182.4 101.25 184.55 97.9C185.3 96.65 185.5 95.65 185.35 93.65C185.2 91.45 184.8 90.55 182.35 87.35C172.2 73.85 157.6 64.7 141.05 61.4L135.5 60.35V52.85V45.4L138.4 45.75C147.35 46.8 155.85 49.4 164.75 53.8C173.25 58.05 179.5 62.5 186.3 69.25C208.8 91.65 216.6 124.05 206.7 154C199.75 175.05 184.3 192.75 164.25 202.5C144.9 212 122.55 213.5 102 206.7C77.25 198.55 57.45 178.75 49.3 154C41.5 130.4 44.75 104.2 58 83.55C61.35 78.3 62 76.5 61.4 73.8C60.3 68.85 54.4 66.5 50.15 69.25C48.55 70.3 43.5 78 40.5 84C35.65 93.7 32.1 105.25 30.95 115.2L30.3 120.5H22.85H15.35L15.7 116.35C17.05 100.7 23.3 82.35 32.1 68.3C54.9 31.9 95.8 11.65 138.5 15.55Z" fill="#040707"/>
<circle cx="128" cy="128" r="83" fill="white"/>
<path d="M100.075 68.375C93.0498 70.55 90.9498 79.65 96.2998 84.65C98.2748 86.475 99.8748 87.1 103.1 87.2L105.8 87.3L105.625 88.225C105.2 90.475 105.025 91.725 105.025 93.2L105 94.75L105.95 94.65C106.45 94.575 107.675 94.45 108.675 94.375C109.675 94.3 111.25 93.95 112.25 93.6C113.225 93.225 114.05 92.975 114.1 93.025C114.15 93.075 115.45 96.875 117 101.45L119.825 109.75L126.825 109.7L133.825 109.625L136.6 101.3C138.125 96.75 139.475 93 139.6 93C139.725 93 140.525 93.275 141.375 93.625C142.3 93.975 143.7 94.3 144.775 94.375C145.8 94.45 147.05 94.575 147.575 94.65L148.5 94.75V92.95C148.5 91.95 148.325 90.35 148.125 89.375C147.925 88.425 147.75 87.55 147.75 87.475C147.75 87.375 148.95 87.25 150.45 87.2C152.725 87.125 153.35 87 154.625 86.425C156.6 85.5 158.525 83.6 159.425 81.65C160.05 80.3 160.125 79.85 160.125 77.625C160.125 75.3 160.075 75 159.325 73.475C157.9 70.6 154.975 68.425 152.025 68.075L150.75 67.925V71.425V74.9L151.625 75.225C153.025 75.725 153.625 77.375 152.95 78.875C152.3 80.3 153.4 80.25 126.775 80.25C108.3 80.25 102.1 80.175 101.625 79.95C99.6998 79.075 99.8998 75.925 101.925 75.2L102.75 74.9V71.45V68L101.95 68.025C101.5 68.025 100.65 68.175 100.075 68.375Z" fill="#040707"/>
<path d="M107.125 101.325C103.775 103.15 101.45 105.275 99.2999 108.5C96.7999 112.275 88.7999 124.675 88.4999 125.25C88.0249 126.125 88.2999 136.925 88.8499 138.625C89.9249 142.075 92.4749 145.1 95.5749 146.625C97.2749 147.45 99.2999 148 100.65 148H101.25V144.5C101.25 141.05 101.25 141 100.7 141C99.8499 141 97.7249 139.9 96.9499 139.1C95.6999 137.75 95.4999 136.875 95.4999 132.575V128.625L100.6 126.425C103.425 125.2 108.1 123.25 111.025 122.1L116.35 120L118.15 120.375C119.15 120.575 120.375 120.75 120.875 120.75H121.75V124.275V127.825L119.65 127.65C116.675 127.425 115.175 127.025 112.8 125.85C111.275 125.075 110.775 124.925 110.85 125.225C111.25 126.525 112.575 134.45 112.725 136.25L112.875 138.375L126.7 138.45L140.5 138.5V137.175C140.5 136.45 141.05 133.325 141.725 130.25C142.4 127.15 142.9 124.575 142.85 124.525C142.825 124.475 142.425 124.7 142.025 124.975C141 125.725 138.375 126.875 136.975 127.2C136.325 127.375 134.85 127.575 133.65 127.65L131.5 127.825V124.325V120.825L133.425 120.65C134.475 120.55 135.725 120.3 136.2 120.125C137.05 119.75 137.125 119.8 147.45 124.225L157.875 128.675V132.775C157.875 136.5 157.825 136.975 157.325 137.875C157.05 138.425 156.525 139.125 156.2 139.425C155.475 140.1 153.575 140.975 152.825 141C152.25 141 152.25 141.05 152.25 144.5V148H153.075C154.25 148 157.025 147.15 158.525 146.325C160.275 145.375 162.475 143.15 163.425 141.35C164.775 138.775 165 137.25 165 130.95V125.275L158.975 116.025C152.8 106.55 151.5 104.85 148.575 102.775C147.375 101.9 144.5 100.425 144.35 100.575C144.275 100.65 143 104.275 141.525 108.65L138.8 116.625H126.725H114.675L112 108.625C110.275 103.475 109.2 100.6 108.975 100.575C108.775 100.525 107.95 100.875 107.125 101.325Z" fill="#040707"/>
<path d="M109.25 148.275C104.375 152.6 102.3 154.725 101 156.675C98.725 160.1 97.75 163.6 97.75 168.3V171.125L101.625 175C105.45 178.825 105.525 178.9 105.45 179.875L105.375 180.875L102.075 180.95L98.75 181.025V184.5V188H105.625H112.5V181.975V175.925L109.975 173.35C107.75 171.1 107.5 170.775 107.9 170.55C108.7 170.15 118.2 166 118.35 166C118.425 166 118.5 167.675 118.5 169.75V173.5H126.625H134.725L134.8 169.675L134.875 165.825L139.25 167.775C141.65 168.85 144.175 169.975 144.85 170.275L146.075 170.8L143.525 173.35L141 175.875V181.95V188H147.75H154.5V184.5V181H151.25H148V179.95C148 178.925 148.1 178.775 151.875 175L155.75 171.1V169.525C155.75 166.85 155.25 163.2 154.6 161.25C153.15 156.95 151.7 155.075 145.55 149.55L141 145.5H126.7H112.375L109.25 148.275Z" fill="#040707"/>
</svg>
