<svg width="48" height="48" viewBox="0 0 48 48" fill="none" xmlns="http://www.w3.org/2000/svg">
<path d="M0.131252 24.9094C0.478127 25.9875 1.11563 26.6344 2.2875 27.1219C2.7 27.2906 11.6813 30.7219 22.2281 34.7344L41.4188 42.0375L41.4563 42.9C41.4844 43.6312 41.5406 43.8469 41.7938 44.3625C42.15 45.0844 42.6563 45.5812 43.3969 45.9281C43.8375 46.1344 44.0531 46.1719 44.7188 46.1719C45.3844 46.1719 45.6 46.1344 46.0406 45.9281C46.7813 45.5812 47.2875 45.0844 47.6438 44.3625L47.9531 43.7344V39.1406C47.9531 34.5844 47.9531 34.5469 47.7469 34.0969C47.2781 33.0937 46.5375 32.4656 45.4688 32.1937C43.7906 31.7625 42.0656 32.775 41.5688 34.4719C41.4844 34.7437 41.4 34.9688 41.3625 34.9688C41.2219 34.9688 12.6563 24.0562 12.6563 24C12.6563 23.9437 41.2219 13.0312 41.3625 13.0312C41.4 13.0312 41.4844 13.2562 41.5688 13.5281C42.0656 15.225 43.7906 16.2375 45.4688 15.8062C46.5375 15.5344 47.2781 14.9062 47.7469 13.9031C47.9531 13.4531 47.9531 13.4156 47.9531 8.85938V4.26562L47.6438 3.6375C47.2875 2.91562 46.7813 2.41875 46.0406 2.07187C45.6 1.86562 45.3844 1.82812 44.7188 1.82812C44.0531 1.82812 43.8375 1.86562 43.3969 2.07187C42.6563 2.41875 42.15 2.91562 41.7938 3.6375C41.5313 4.15312 41.4844 4.36875 41.4563 5.10938L41.4188 5.9625L21.9938 13.3594C11.3156 17.4187 2.31563 20.8594 1.99688 21C0.796879 21.5437 0.0937538 22.5656 0.0281296 23.8594C0.00937653 24.2437 0.0562515 24.675 0.131252 24.9094Z" fill="#040707"/>
</svg>
