<svg width="48" height="48" viewBox="0 0 48 48" fill="none" xmlns="http://www.w3.org/2000/svg">
<path d="M47.8687 24.9094C47.5219 25.9875 46.8844 26.6344 45.7125 27.1219C45.3 27.2906 36.3187 30.7219 25.7719 34.7344L6.58125 42.0375L6.54375 42.9C6.51562 43.6312 6.45937 43.8469 6.20625 44.3625C5.85 45.0844 5.34375 45.5812 4.60312 45.9281C4.1625 46.1344 3.94687 46.1719 3.28125 46.1719C2.61562 46.1719 2.4 46.1344 1.95937 45.9281C1.21875 45.5812 0.7125 45.0844 0.35625 44.3625L0.046875 43.7344L0.046875 39.1406C0.046875 34.5844 0.046875 34.5469 0.253125 34.0969C0.721875 33.0937 1.4625 32.4656 2.53125 32.1937C4.20937 31.7625 5.93437 32.775 6.43125 34.4719C6.51562 34.7437 6.6 34.9688 6.6375 34.9688C6.77812 34.9688 35.3437 24.0562 35.3437 24C35.3437 23.9437 6.77812 13.0312 6.6375 13.0312C6.6 13.0312 6.51562 13.2562 6.43125 13.5281C5.93437 15.225 4.20937 16.2375 2.53125 15.8062C1.4625 15.5344 0.721875 14.9062 0.253125 13.9031C0.046875 13.4531 0.046875 13.4156 0.046875 8.85938L0.046875 4.26562L0.35625 3.6375C0.7125 2.91562 1.21875 2.41875 1.95937 2.07187C2.4 1.86562 2.61562 1.82812 3.28125 1.82812C3.94687 1.82812 4.1625 1.86562 4.60312 2.07187C5.34375 2.41875 5.85 2.91562 6.20625 3.6375C6.46875 4.15312 6.51562 4.36875 6.54375 5.10938L6.58125 5.9625L26.0062 13.3594C36.6844 17.4187 45.6844 20.8594 46.0031 21C47.2031 21.5437 47.9062 22.5656 47.9719 23.8594C47.9906 24.2437 47.9437 24.675 47.8687 24.9094Z" fill="#040707"/>
</svg>
