<svg width="183" height="40" viewBox="0 0 183 40" fill="none" xmlns="http://www.w3.org/2000/svg">
<rect x="15" y="18" width="7" height="5" fill="#CE7829"/>
<rect x="27" y="18" width="7" height="5" fill="#CE7829"/>
<rect x="6" y="18" width="5" height="5" fill="#CE7829"/>
<rect x="7" y="28" width="26" height="5" fill="#CE7829"/>
<rect x="18" y="23" width="4" height="5" fill="#CE7829"/>
<rect x="29" y="23" width="4" height="5" fill="#CE7829"/>
<rect x="13" y="2" width="14" height="4" fill="#CE7829"/>
<rect x="7" y="23" width="4" height="5" fill="#CE7829"/>
<path d="M50.9091 32.3295C49.7955 32.3295 48.803 32.1364 47.9318 31.75C47.0606 31.3561 46.3712 30.7765 45.8636 30.0114C45.3636 29.2386 45.1136 28.2765 45.1136 27.125C45.1136 26.1553 45.2917 25.3409 45.6477 24.6818C46.0038 24.0227 46.4886 23.4924 47.1023 23.0909C47.7159 22.6894 48.4129 22.3864 49.1932 22.1818C49.9811 21.9773 50.8068 21.8333 51.6705 21.75C52.6856 21.6439 53.5038 21.5455 54.125 21.4545C54.7462 21.3561 55.197 21.2121 55.4773 21.0227C55.7576 20.8333 55.8977 20.553 55.8977 20.1818V20.1136C55.8977 19.3939 55.6705 18.8371 55.2159 18.4432C54.7689 18.0492 54.1326 17.8523 53.3068 17.8523C52.4356 17.8523 51.7424 18.0455 51.2273 18.4318C50.7121 18.8106 50.3712 19.2879 50.2045 19.8636L45.7273 19.5C45.9545 18.4394 46.4015 17.5227 47.0682 16.75C47.7348 15.9697 48.5947 15.3712 49.6477 14.9545C50.7083 14.5303 51.9356 14.3182 53.3295 14.3182C54.2992 14.3182 55.2273 14.4318 56.1136 14.6591C57.0076 14.8864 57.7992 15.2386 58.4886 15.7159C59.1856 16.1932 59.7348 16.8068 60.1364 17.5568C60.5379 18.2992 60.7386 19.1894 60.7386 20.2273V32H56.1477V29.5795H56.0114C55.7311 30.125 55.3561 30.6061 54.8864 31.0227C54.4167 31.4318 53.8523 31.7538 53.1932 31.9886C52.5341 32.2159 51.7727 32.3295 50.9091 32.3295ZM52.2955 28.9886C53.0076 28.9886 53.6364 28.8485 54.1818 28.5682C54.7273 28.2803 55.1553 27.8939 55.4659 27.4091C55.7765 26.9242 55.9318 26.375 55.9318 25.7614V23.9091C55.7803 24.0076 55.572 24.0985 55.3068 24.1818C55.0492 24.2576 54.7576 24.3295 54.4318 24.3977C54.1061 24.4583 53.7803 24.5152 53.4545 24.5682C53.1288 24.6136 52.8333 24.6553 52.5682 24.6932C52 24.7765 51.5038 24.9091 51.0795 25.0909C50.6553 25.2727 50.3258 25.5189 50.0909 25.8295C49.8561 26.1326 49.7386 26.5114 49.7386 26.9659C49.7386 27.625 49.9773 28.1288 50.4545 28.4773C50.9394 28.8182 51.553 28.9886 52.2955 28.9886ZM64.4943 32V14.5455H69.108V17.625H69.3125C69.6761 16.6023 70.2822 15.7955 71.1307 15.2045C71.9792 14.6136 72.9943 14.3182 74.1761 14.3182C75.3731 14.3182 76.392 14.6174 77.233 15.2159C78.0739 15.8068 78.6345 16.6098 78.9148 17.625H79.0966C79.4527 16.625 80.0966 15.8258 81.0284 15.2273C81.9678 14.6212 83.0777 14.3182 84.358 14.3182C85.9867 14.3182 87.3087 14.8371 88.3239 15.875C89.3466 16.9053 89.858 18.3674 89.858 20.2614V32H85.0284V21.2159C85.0284 20.2462 84.7708 19.5189 84.2557 19.0341C83.7405 18.5492 83.0966 18.3068 82.3239 18.3068C81.4451 18.3068 80.7595 18.5871 80.267 19.1477C79.7746 19.7008 79.5284 20.4318 79.5284 21.3409V32H74.8352V21.1136C74.8352 20.2576 74.589 19.5758 74.0966 19.0682C73.6117 18.5606 72.9716 18.3068 72.1761 18.3068C71.6383 18.3068 71.1534 18.4432 70.7216 18.7159C70.2973 18.9811 69.9602 19.3561 69.7102 19.8409C69.4602 20.3182 69.3352 20.8788 69.3352 21.5227V32H64.4943ZM153.526 32V14.5455H158.219V17.5909H158.401C158.719 16.5076 159.253 15.6894 160.003 15.1364C160.753 14.5758 161.616 14.2955 162.594 14.2955C162.836 14.2955 163.098 14.3106 163.378 14.3409C163.658 14.3712 163.904 14.4129 164.116 14.4659V18.7614C163.889 18.6932 163.575 18.6326 163.173 18.5795C162.772 18.5265 162.404 18.5 162.071 18.5C161.359 18.5 160.723 18.6553 160.162 18.9659C159.609 19.2689 159.17 19.6932 158.844 20.2386C158.526 20.7841 158.366 21.4129 158.366 22.125V32H153.526ZM171.097 32.3295C169.983 32.3295 168.991 32.1364 168.119 31.75C167.248 31.3561 166.559 30.7765 166.051 30.0114C165.551 29.2386 165.301 28.2765 165.301 27.125C165.301 26.1553 165.479 25.3409 165.835 24.6818C166.191 24.0227 166.676 23.4924 167.29 23.0909C167.903 22.6894 168.6 22.3864 169.381 22.1818C170.169 21.9773 170.994 21.8333 171.858 21.75C172.873 21.6439 173.691 21.5455 174.312 21.4545C174.934 21.3561 175.384 21.2121 175.665 21.0227C175.945 20.8333 176.085 20.553 176.085 20.1818V20.1136C176.085 19.3939 175.858 18.8371 175.403 18.4432C174.956 18.0492 174.32 17.8523 173.494 17.8523C172.623 17.8523 171.93 18.0455 171.415 18.4318C170.9 18.8106 170.559 19.2879 170.392 19.8636L165.915 19.5C166.142 18.4394 166.589 17.5227 167.256 16.75C167.922 15.9697 168.782 15.3712 169.835 14.9545C170.896 14.5303 172.123 14.3182 173.517 14.3182C174.487 14.3182 175.415 14.4318 176.301 14.6591C177.195 14.8864 177.987 15.2386 178.676 15.7159C179.373 16.1932 179.922 16.8068 180.324 17.5568C180.725 18.2992 180.926 19.1894 180.926 20.2273V32H176.335V29.5795H176.199C175.919 30.125 175.544 30.6061 175.074 31.0227C174.604 31.4318 174.04 31.7538 173.381 31.9886C172.722 32.2159 171.96 32.3295 171.097 32.3295ZM172.483 28.9886C173.195 28.9886 173.824 28.8485 174.369 28.5682C174.915 28.2803 175.343 27.8939 175.653 27.4091C175.964 26.9242 176.119 26.375 176.119 25.7614V23.9091C175.968 24.0076 175.759 24.0985 175.494 24.1818C175.237 24.2576 174.945 24.3295 174.619 24.3977C174.294 24.4583 173.968 24.5152 173.642 24.5682C173.316 24.6136 173.021 24.6553 172.756 24.6932C172.188 24.7765 171.691 24.9091 171.267 25.0909C170.843 25.2727 170.513 25.5189 170.278 25.8295C170.044 26.1326 169.926 26.5114 169.926 26.9659C169.926 27.625 170.165 28.1288 170.642 28.4773C171.127 28.8182 171.741 28.9886 172.483 28.9886Z" fill="#040707"/>
<path d="M93.6818 38.5455V14.5455H98.4545V17.4773H98.6705C98.8826 17.0076 99.1894 16.5303 99.5909 16.0455C100 15.553 100.53 15.1439 101.182 14.8182C101.841 14.4848 102.659 14.3182 103.636 14.3182C104.909 14.3182 106.083 14.6515 107.159 15.3182C108.235 15.9773 109.095 16.9735 109.739 18.3068C110.383 19.6326 110.705 21.2955 110.705 23.2955C110.705 25.2424 110.39 26.8864 109.761 28.2273C109.14 29.5606 108.292 30.572 107.216 31.2614C106.148 31.9432 104.951 32.2841 103.625 32.2841C102.686 32.2841 101.886 32.1288 101.227 31.8182C100.576 31.5076 100.042 31.1174 99.625 30.6477C99.2083 30.1705 98.8902 29.6894 98.6705 29.2045H98.5227V38.5455H93.6818ZM98.4205 23.2727C98.4205 24.3106 98.5644 25.2159 98.8523 25.9886C99.1402 26.7614 99.5568 27.3636 100.102 27.7955C100.648 28.2197 101.311 28.4318 102.091 28.4318C102.879 28.4318 103.545 28.2159 104.091 27.7841C104.636 27.3447 105.049 26.7386 105.33 25.9659C105.617 25.1856 105.761 24.2879 105.761 23.2727C105.761 22.2652 105.621 21.3788 105.341 20.6136C105.061 19.8485 104.648 19.25 104.102 18.8182C103.557 18.3864 102.886 18.1705 102.091 18.1705C101.303 18.1705 100.636 18.3788 100.091 18.7955C99.553 19.2121 99.1402 19.803 98.8523 20.5682C98.5644 21.3333 98.4205 22.2348 98.4205 23.2727ZM118.773 21.9091V32H113.932V8.72727H118.636V17.625H118.841C119.235 16.5947 119.871 15.7879 120.75 15.2045C121.629 14.6136 122.731 14.3182 124.057 14.3182C125.269 14.3182 126.326 14.5833 127.227 15.1136C128.136 15.6364 128.841 16.3902 129.341 17.375C129.848 18.3523 130.098 19.5227 130.091 20.8864V32H125.25V21.75C125.258 20.6742 124.985 19.8371 124.432 19.2386C123.886 18.6402 123.121 18.3409 122.136 18.3409C121.477 18.3409 120.894 18.4811 120.386 18.7614C119.886 19.0417 119.492 19.4508 119.205 19.9886C118.924 20.5189 118.78 21.1591 118.773 21.9091ZM141.787 32.3409C140.022 32.3409 138.495 31.9659 137.207 31.2159C135.927 30.4583 134.938 29.4053 134.241 28.0568C133.545 26.7008 133.196 25.1288 133.196 23.3409C133.196 21.5379 133.545 19.9621 134.241 18.6136C134.938 17.2576 135.927 16.2045 137.207 15.4545C138.495 14.697 140.022 14.3182 141.787 14.3182C143.552 14.3182 145.075 14.697 146.355 15.4545C147.643 16.2045 148.635 17.2576 149.332 18.6136C150.029 19.9621 150.378 21.5379 150.378 23.3409C150.378 25.1288 150.029 26.7008 149.332 28.0568C148.635 29.4053 147.643 30.4583 146.355 31.2159C145.075 31.9659 143.552 32.3409 141.787 32.3409ZM141.81 28.5909C142.613 28.5909 143.283 28.3636 143.821 27.9091C144.359 27.447 144.764 26.8182 145.037 26.0227C145.317 25.2273 145.457 24.322 145.457 23.3068C145.457 22.2917 145.317 21.3864 145.037 20.5909C144.764 19.7955 144.359 19.1667 143.821 18.7045C143.283 18.2424 142.613 18.0114 141.81 18.0114C140.999 18.0114 140.317 18.2424 139.764 18.7045C139.219 19.1667 138.806 19.7955 138.526 20.5909C138.253 21.3864 138.116 22.2917 138.116 23.3068C138.116 24.322 138.253 25.2273 138.526 26.0227C138.806 26.8182 139.219 27.447 139.764 27.9091C140.317 28.3636 140.999 28.5909 141.81 28.5909Z" fill="#CE7829"/>
<path d="M9.4531 1.17188V2.34375H10.1562C11.0312 2.34375 11.3984 2.5 11.6406 2.96875C11.789 3.25781 11.7968 3.42188 11.7968 5.5C11.7968 6.88281 11.7656 7.80469 11.7109 7.94531C11.5781 8.30469 11.3281 8.50781 10.6328 8.83594C8.15622 9.99219 6.36716 12.0859 5.48435 14.8438C4.92966 16.6016 4.80466 17.7109 4.81247 20.8594C4.8281 25 5.19528 28.3672 5.97653 31.4922C6.96872 35.4531 8.5781 38.2344 10.6953 39.6406L11.2343 40H20.0156H28.8047L29.2656 39.6797C31.1094 38.3828 32.4062 36.4766 33.4062 33.5781C34.5078 30.3672 35.0859 26.4531 35.2031 21.4453C35.289 17.8047 34.9453 15.5469 33.9844 13.4688C33.0547 11.4531 31.3906 9.78125 29.3672 8.83594C28.7187 8.53125 28.4687 8.32812 28.289 7.99219C28.2344 7.875 28.2031 7.07812 28.2031 5.54688C28.2031 3.42188 28.2109 3.25781 28.3594 2.96875C28.6015 2.5 28.9687 2.34375 29.8437 2.34375H30.5469V1.17188V0H20H9.4531V1.17188ZM25.9765 2.51562C25.9453 2.61719 25.9062 3.17969 25.8828 3.76562L25.8437 4.84375H20H14.164L14.1172 3.76562C14.0937 3.17969 14.0547 2.61719 14.0234 2.51562L13.9687 2.34375H20H26.0312L25.9765 2.51562ZM25.8594 7.5625C25.8594 7.76562 25.914 8.14062 25.9765 8.38281C26.2734 9.53125 26.8984 10.25 28.1015 10.8203C29.4609 11.4688 30.3906 12.2109 31.1484 13.2344C31.7344 14.0234 32.2578 15.1953 32.4844 16.2266L32.5625 16.5625H29.2109H25.8594V20.0781V23.5938H27.0312H28.2031V24.7656V25.9375H25.8594H23.5156V21.25V16.5625H18.8281H14.1406V20.0781V23.5938H15.3125H16.4843V24.7656V25.9375H14.1406H11.7968V21.25V16.5625H9.61716H7.43747L7.5156 16.2266C7.64841 15.6172 7.97653 14.7344 8.28903 14.1406C9.00778 12.7578 10.1093 11.7266 11.7187 10.9219C12.8125 10.375 13.3593 9.91406 13.7031 9.23438C13.9609 8.71875 14.1406 8.03906 14.1406 7.5625V7.1875H20H25.8594V7.5625ZM9.4531 23.5938V28.2812H14.1406H18.8281V24.7656V21.25H17.6562H16.4843V20.0781V18.9062H18.8281H21.1719V23.5938V28.2812H25.8594H30.5469V24.7656V21.25H29.375H28.2031V20.0781V18.9062H30.5625H32.914L32.8672 21.2266C32.7734 25.5312 32.3359 28.9141 31.5156 31.7422C31.3594 32.2656 31.2187 32.7578 31.1953 32.8281C31.1562 32.9609 30.5547 32.9688 20.0078 32.9688H8.85935L8.65622 32.3203C7.73435 29.4688 7.23435 25.7969 7.13278 21.2266L7.08591 18.9062H8.2656H9.4531V23.5938ZM29.9609 35.5234C29.5234 36.2109 29.0937 36.7422 28.6406 37.1719L28.1172 37.6562H20H11.8828L11.3593 37.1719C10.9062 36.7422 10.4765 36.2109 10.039 35.5234L9.90622 35.3125H20H30.0937L29.9609 35.5234Z" fill="black"/>
</svg>
