<svg width="256" height="256" viewBox="0 0 256 256" fill="none" xmlns="http://www.w3.org/2000/svg">
<path d="M29.75 0.850002C22.3 2.45 16 6 10.5 11.8C3.05 19.6 0 27.7 0 39.5V45H128H256V39.5C256 30.35 254.15 23.7 249.75 17C244.3 8.65 235.7 2.8 225.9 0.800003C222.45 0.100002 212.1 3.8147e-06 127.65 0.0500031C45.8 0.100002 32.8 0.200005 29.75 0.850002Z" fill="#040707"/>
<path d="M0 67.5V75H45.25H90.5V67.5V60H45.25H0V67.5Z" fill="#040707"/>
<path d="M105.5 72.25C105.5 85.3 105.85 88 107.9 92.5C109.6 96.15 114.45 100.9 118.15 102.65C129.2 107.8 142.15 103.6 147.65 93.15C150.2 88.2 150.5 85.95 150.5 72.25V60H128H105.5V72.25ZM131.5 76C133.75 77.15 135.5 80 135.5 82.5C135.5 86.3 131.8 90 127.95 90C125.65 90 122.55 88.05 121.45 85.9C119.6 82.3 120.75 78.35 124.3 76.2C126.7 74.75 128.9 74.7 131.5 76Z" fill="#040707"/>
<path d="M165.5 67.5V75H210.75H256V67.5V60H210.75H165.5V67.5Z" fill="#040707"/>
<path d="M0 113V136H34.75C68.65 136 69.6 136.05 71.5 137C72.8 137.65 73.85 138.7 74.5 140C75.45 141.9 75.5 142.9 75.5 169V196H98H120.5V188.5V181H108.45C96.9 181 96.3 180.95 94.4 179.9C90.6 177.75 90.5 177.3 90.5 158.5C90.5 139.7 90.6 139.25 94.4 137.1L96.4 136H127.95C158.6 136 159.6 136.05 161.5 137C162.8 137.65 163.85 138.7 164.5 140C165.45 141.9 165.5 142.9 165.5 169V196H188H210.5V188.5V181H198.45C186.9 181 186.3 180.95 184.4 179.9C180.6 177.75 180.5 177.3 180.5 158.5C180.5 139.7 180.6 139.25 184.4 137.1L186.4 136H221.2H256V113V90H210.4H164.75L163.35 94.45C160.25 104.1 152.05 113 142.75 116.9C137.3 119.2 134.45 119.7 128 119.7C120.9 119.7 117.5 118.95 111.75 116.15C103.35 112 96.7 104.95 93.3 96.55C92.6 94.8 91.9 92.6 91.7 91.7L91.4 90H45.7H0V113Z" fill="#040707"/>
<path d="M0 158.5V166H19.75C38.6 166 39.65 166.05 41.5 167C42.8 167.65 43.85 168.7 44.5 170C45.45 171.85 45.5 172.9 45.5 188.5C45.5 204.1 45.45 205.15 44.5 207C43.85 208.3 42.8 209.35 41.5 210C39.65 210.95 38.6 211 19.75 211H0V230.5C0 249.1 0.05 250.15 1 252C2.15 254.25 5 256 7.5 256C10 256 12.85 254.25 14 252C14.8 250.45 15 249.05 15 245.5V241H128H241V245.5C241 249.05 241.2 250.45 242 252C243.15 254.25 246 256 248.5 256C251 256 253.85 254.25 255 252C256 250.05 256 249.15 256 200.5V151H225.75H195.5V158.5V166H207.5C218.6 166 219.7 166.1 221.5 167C222.8 167.65 223.85 168.7 224.5 170C225.45 171.85 225.5 172.9 225.5 188.5C225.5 204.1 225.45 205.15 224.5 207C223.85 208.3 222.8 209.35 221.5 210C219.6 210.95 218.6 211 187.95 211H156.4L154.4 209.9C153.2 209.2 152 208 151.45 206.9C150.55 205.15 150.5 203.55 150.5 178V151H128H105.5V158.5V166H117.5C128.6 166 129.7 166.1 131.5 167C132.8 167.65 133.85 168.7 134.5 170C135.45 171.85 135.5 172.9 135.5 188.5C135.5 204.1 135.45 205.15 134.5 207C133.85 208.3 132.8 209.35 131.5 210C129.6 210.95 128.6 211 97.95 211H66.4L64.4 209.9C63.2 209.2 62 208 61.45 206.9C60.55 205.15 60.5 203.55 60.5 178V151H30.25H0V158.5Z" fill="#040707"/>
<path d="M0 188.5V196H15.25H30.5V188.5V181H15.25H0V188.5Z" fill="#040707"/>
</svg>
