<svg width="64" height="64" viewBox="0 0 64 64" fill="none" xmlns="http://www.w3.org/2000/svg">
<path fill-rule="evenodd" clip-rule="evenodd" d="M64 32C64 49.6735 49.6735 64 32 64C14.3265 64 0 49.6735 0 32C0 14.3265 14.3265 0 32 0C49.6735 0 64 14.3265 64 32Z" fill="#F43E37"/>
<path fill-rule="evenodd" clip-rule="evenodd" d="M7.11111 32C7.11111 18.2542 18.2542 7.11108 32 7.11108C45.7458 7.11108 56.8889 18.2542 56.8889 32H50.6667C50.6667 21.6906 42.3093 13.3333 32 13.3333C21.6907 13.3333 13.3333 21.6906 13.3333 32C13.3333 42.3093 21.6907 50.6666 32 50.6666V56.8889C18.2542 56.8889 7.11111 45.7458 7.11111 32ZM32 46.9333C23.7525 46.9333 17.0667 40.2474 17.0667 32C17.0667 23.7525 23.7525 17.0666 32 17.0666C40.2475 17.0666 46.9333 23.7525 46.9333 32H41.5031C41.5031 26.7516 37.2484 22.4969 32 22.4969C26.7516 22.4969 22.497 26.7516 22.497 32C22.497 37.2483 26.7516 41.503 32 41.503V46.9333Z" fill="white"/>
</svg>
