<svg width="450" height="512" viewBox="0 0 450 512" fill="none" xmlns="http://www.w3.org/2000/svg">
<path d="M7.8 2.1C5.5 3.3 3.2 5.6 2 8C0 11.8 0 13.7 0 98C0 182.3 0 184.2 2 188C4.3 192.5 10 196 15 196C20 196 25.7 192.5 28 188C30 184.2 30 182.3 30 98C30 13.7 30 11.8 28 8C24.3 0.699997 15.3 -1.9 7.8 2.1Z" fill="white"/>
<path d="M209.5 0.999973C188.1 4.29997 166.5 15.4 150.9 30.9C137.4 44.5 128 61.1 122.9 80.6L120.5 89.5V181C120.5 271.6 120.5 272.6 122.7 280C128.6 300.9 137.5 316.6 150.9 330.1C164.4 343.6 180.7 352.7 201 358.2C212.5 361.4 237.2 361.3 249.4 358.1C276.3 351.1 298.5 335.3 313.1 312.7C319.2 303.3 323.6 293.3 327.3 280C329.5 272.6 329.5 271.6 329.5 180.5C329.5 89.4 329.5 88.4 327.3 81C321.3 59.9 312.4 44.3 298.7 30.6C285.1 17 269 7.89997 250 3.09997C240.3 0.599973 219.3 -0.500027 209.5 0.999973Z" fill="white"/>
<path d="M427.8 2.1C425.5 3.3 423.2 5.6 422 8C420 11.8 420 13.7 420 98C420 182.3 420 184.2 422 188C424.3 192.5 430 196 435 196C440 196 445.7 192.5 448 188C450 184.2 450 182.3 450 98C450 13.7 450 11.8 448 8C444.3 0.699997 435.3 -1.9 427.8 2.1Z" fill="white"/>
<path d="M67.8 48.1C65.5 49.3 63.2 51.6 62 54C60.1 57.7 60 59.8 60 98.5C60 137.2 60.1 139.3 62 143C64.3 147.5 70 151 75 151C80 151 85.7 147.5 88 143C89.9 139.3 90 137.2 90 98.5C90 59.8 89.9 57.7 88 54C84.3 46.7 75.3 44.1 67.8 48.1Z" fill="white"/>
<path d="M367.8 48.1C365.5 49.3 363.2 51.6 362 54C360.1 57.7 360 59.8 360 98.5C360 137.2 360.1 139.3 362 143C364.3 147.5 370 151 375 151C380 151 385.7 147.5 388 143C389.9 139.3 390 137.2 390 98.5C390 59.8 389.9 57.7 388 54C384.3 46.7 375.3 44.1 367.8 48.1Z" fill="white"/>
<path d="M67.8 213.1C60.8 216.7 60 219.9 60 243.7C60 265.2 60.9 276.9 63.6 290C77.4 356.7 133.6 409.6 200.9 419.1L210 420.4V451.2V482H171C133.8 482 131.7 482.1 128 484C123.5 486.3 120 492 120 497C120 502 123.5 507.7 128 510C131.8 512 133.7 512 225 512C316.3 512 318.2 512 322 510C326.5 507.7 330 502 330 497C330 492 326.5 486.3 322 484C318.3 482.1 316.2 482 279 482H240V451.2V420.4L249.1 419.1C312.7 410.1 366.9 362.2 384 299.9C388.3 284 389.2 276.2 389.7 249.4C390.2 224.3 390.2 223.2 388.1 219.2C385.7 214.5 380.1 211 375 211C370.1 211 364.3 214.5 362.1 218.8C360.5 222.1 360.2 225.6 359.7 248.5C359.3 269.7 358.8 276.2 357.2 283.5C350.9 311.1 339.3 332.1 319.6 351.5C299.5 371.4 278.1 382.8 250 388.7C238.2 391.1 211.8 391.1 200 388.7C171.7 382.8 149.8 370.9 129.5 350.6C113.7 334.7 103.6 318.6 97.1 298.6C91.6 281.8 90.9 276.5 90.3 248.5C89.7 218.8 89.2 216.7 82 213C77.1 210.5 72.6 210.5 67.8 213.1Z" fill="white"/>
</svg>
