<svg width="16" height="16" viewBox="0 0 16 16" fill="none" xmlns="http://www.w3.org/2000/svg">
<path d="M6.06209 0.065629C5.03084 0.178129 3.93084 0.575004 3.06209 1.14688C0.490219 2.84375 -0.612906 6.01875 0.346469 8.95313C0.502719 9.43125 0.855844 10.1531 1.13709 10.5719C2.24334 12.2219 3.98084 13.3 5.93709 13.5469C6.54647 13.625 7.44959 13.6 8.03709 13.4875C9.09334 13.2875 10.1652 12.8 11.0121 12.1313C11.3215 11.8906 11.9183 11.2844 12.1465 10.9844C12.8996 9.9875 13.3465 8.91875 13.5152 7.71875C13.5715 7.30313 13.5808 6.39063 13.5308 6.01563C13.3683 4.7875 12.9308 3.69688 12.2215 2.75C11.1715 1.35 9.65897 0.428129 7.92147 0.121879C7.49022 0.0468788 6.49959 0.0156288 6.06209 0.065629ZM7.18397 1.9375C7.63397 1.97813 7.93084 2.0375 8.34022 2.175C9.92459 2.7 11.1621 4.04688 11.5465 5.6625C12.0246 7.68125 11.2183 9.7375 9.49959 10.8906C7.64334 12.1344 5.18397 11.95 3.49647 10.4375C2.75272 9.77188 2.22147 8.85 1.99022 7.81875C1.93397 7.55938 1.92459 7.41875 1.92147 6.82813C1.92147 6.075 1.94647 5.8875 2.13084 5.3125C2.72459 3.45313 4.39959 2.11563 6.35584 1.94063C6.76522 1.90313 6.79022 1.90313 7.18397 1.9375Z" fill="#CE7829"/>
<path d="M12.8748 11.8031C12.7311 11.9969 12.0654 12.6688 11.8217 12.8688L11.6279 13.0281L13.0154 14.3969C14.6123 15.9688 14.5936 15.9531 15.0279 15.9531C15.2592 15.9531 15.3186 15.9406 15.4529 15.8688C15.9904 15.5844 16.1623 14.9031 15.8154 14.4344C15.7311 14.3188 13.0311 11.6563 12.9998 11.6563C12.9904 11.6563 12.9342 11.725 12.8748 11.8031Z" fill="#CE7829"/>
</svg>
