<?xml version="1.0" standalone="no"?>
<!DOCTYPE svg PUBLIC "-//W3C//DTD SVG 20010904//EN"
 "http://www.w3.org/TR/2001/REC-SVG-20010904/DTD/svg10.dtd">
<svg version="1.0" xmlns="http://www.w3.org/2000/svg"
 width="512.000000pt" height="512.000000pt" viewBox="0 0 512.000000 512.000000"
 preserveAspectRatio="xMidYMid meet">

<g transform="translate(0.000000,512.000000) scale(0.100000,-0.100000)"
fill="#000000" stroke="none">
<path d="M2315 5109 c-1080 -111 -1977 -887 -2238 -1934 -58 -232 -71 -349
-71 -615 0 -177 4 -265 18 -355 145 -950 773 -1720 1681 -2057 119 -44 363
-104 510 -125 180 -25 511 -25 690 1 1036 147 1885 910 2138 1921 55 219 72
366 72 615 0 249 -17 396 -72 615 -229 917 -957 1643 -1873 1869 -80 19 -192
43 -250 51 -126 19 -479 27 -605 14z m436 -609 c469 -48 904 -262 1225 -603
657 -698 712 -1751 132 -2520 -80 -107 -271 -296 -378 -376 -783 -582 -1858
-505 -2546 183 -288 288 -472 640 -546 1046 -30 165 -30 495 0 660 56 308 182
598 367 845 78 104 268 295 372 373 399 301 888 441 1374 392z"/>
<path d="M2377 4199 c-560 -65 -1052 -412 -1298 -914 -177 -365 -215 -769
-107 -1167 12 -43 24 -78 28 -78 4 0 355 407 781 904 426 498 776 905 779 905
3 0 353 -407 779 -905 426 -497 777 -904 781 -904 9 0 44 128 66 245 22 112
25 413 6 525 -91 516 -379 932 -825 1188 -286 163 -661 240 -990 201z"/>
<path d="M1848 2560 c-387 -452 -704 -825 -706 -829 -3 -9 102 -167 146 -219
l28 -34 618 721 c339 397 621 721 626 721 5 0 287 -324 626 -721 l618 -721 28
34 c44 52 149 210 146 219 -6 16 -1410 1649 -1418 1649 -5 0 -325 -369 -712
-820z"/>
<path d="M2051 1874 c-276 -322 -504 -591 -507 -598 -3 -8 29 -36 83 -73 575
-391 1293 -391 1866 0 54 37 86 65 83 73 -7 18 -1007 1184 -1016 1184 -4 0
-233 -263 -509 -586z"/>
</g>
</svg>
