<svg width="72" height="40" viewBox="0 0 72 40" fill="none" xmlns="http://www.w3.org/2000/svg">
<g clip-path="url(#clip0_35_25)">
<path d="M0 32.7712C0 33.6647 0.323914 34.3403 0.971626 34.7982C1.61937 35.2561 2.31178 35.418 3.04886 35.284C3.74124 35.15 4.22706 34.9043 4.50634 34.5469C4.7855 34.1896 4.92515 33.5976 4.92515 32.7712V23.0551C4.92515 22.3626 4.68507 21.7763 4.2048 21.2961C3.72465 20.8159 3.13834 20.5758 2.44587 20.5758C1.77578 20.5758 1.20064 20.8159 0.720404 21.2961C0.240163 21.7763 0 22.3626 0 23.0551V32.7712ZM7.70591 36.9257C7.70591 37.5736 7.93487 38.0593 8.39273 38.3832C8.85065 38.7071 9.43702 38.869 10.1517 38.869C10.8888 38.869 11.4862 38.707 11.9441 38.3832C12.402 38.0594 12.631 37.5736 12.631 36.9257V14.2771C12.631 13.607 12.3908 13.0318 11.9107 12.5516C11.4304 12.0715 10.8441 11.8313 10.1517 11.8313C9.48163 11.8313 8.90641 12.0715 8.42625 12.5516C7.94598 13.0319 7.70591 13.607 7.70591 14.2771V36.9257ZM15.3783 37.9978C15.3783 38.6456 15.6128 39.1314 16.0819 39.4553C16.5509 39.7792 17.154 39.9411 17.8912 39.9411C18.6059 39.9411 19.1922 39.7792 19.6501 39.4553C20.108 39.1314 20.337 38.6456 20.337 37.9978V17.3259C20.337 16.6335 20.0968 16.0416 19.6166 15.5502C19.1364 15.0588 18.5613 14.8132 17.8912 14.8132C17.1987 14.8132 16.6068 15.0588 16.1155 15.5502C15.6241 16.0416 15.3784 16.6335 15.3784 17.3259V37.9978H15.3783ZM23.0842 38.0984C23.0842 39.3269 23.9106 39.9411 25.5635 39.9411C27.2163 39.9411 28.0427 39.3269 28.0427 38.0984V4.59445C28.0427 2.71822 27.4732 1.65728 26.334 1.41156C25.5969 1.23286 24.871 1.44506 24.1563 2.04813C23.4415 2.6512 23.0841 3.49994 23.0841 4.59442V38.0984H23.0842ZM30.9242 39.07V2.61771C30.9242 1.45626 31.2704 0.76385 31.9628 0.540449C33.4593 0.183099 34.9447 0.00439453 36.4189 0.00439453C39.8362 0.00439453 43.0191 0.80849 45.9674 2.41668C48.9158 4.02487 51.3002 6.21938 53.1205 9.00019C54.9409 11.7811 55.9963 14.8466 56.2866 18.1971C57.6491 17.6163 59.1009 17.326 60.6421 17.326C63.7691 17.326 66.4439 18.4316 68.6663 20.6429C70.8887 22.8542 72 25.5121 72 28.6169C72 31.7439 70.8887 34.413 68.6663 36.6243C66.4439 38.8356 63.7803 39.9412 60.6756 39.9412L31.5271 39.9077C31.326 39.8407 31.1753 39.7178 31.0748 39.5392C30.9742 39.3605 30.9242 39.204 30.9242 39.07Z" fill="url(#paint0_linear_35_25)"/>
</g>
<defs>
<linearGradient id="paint0_linear_35_25" x1="36.077" y1="1.09108" x2="36.077" y2="39.1441" gradientUnits="userSpaceOnUse">
<stop stop-color="#FF8800"/>
<stop offset="1" stop-color="#FF3300"/>
</linearGradient>
<clipPath id="clip0_35_25">
<rect width="72" height="39.9456" fill="white"/>
</clipPath>
</defs>
</svg>
