<svg width="64" height="64" viewBox="0 0 64 64" fill="none" xmlns="http://www.w3.org/2000/svg">
<circle cx="32" cy="32" r="30" fill="#040707"/>
<path d="M32 0C14.3263 0 0 14.3263 0 32C0 49.6737 14.3263 64 32 64C49.6737 64 64 49.6737 64 32C64 14.3285 49.6737 0.00218356 32 0ZM46.6757 46.1516C46.1014 47.0949 44.8721 47.3897 43.9331 46.8154C36.4195 42.2234 26.9604 41.1862 15.822 43.7301C14.7477 43.9768 13.6778 43.3043 13.4332 42.23C13.1865 41.1556 13.8568 40.0857 14.9333 39.8411C27.1219 37.0571 37.579 38.2559 46.0141 43.4091C46.953 43.9877 47.2521 45.2127 46.6757 46.1516ZM50.5908 37.4414C49.868 38.6162 48.3308 38.983 47.1582 38.2624C38.5594 32.9761 25.445 31.4454 15.2718 34.5329C13.9529 34.9325 12.5598 34.1879 12.158 32.8712C11.7606 31.5524 12.5052 30.1614 13.8219 29.7597C25.4428 26.2332 39.8914 27.9408 49.7676 34.0111C50.9423 34.7338 51.3135 36.2688 50.5908 37.4414ZM50.9271 28.3666C40.6119 22.2417 23.5977 21.6783 13.7498 24.6654C12.169 25.1458 10.4963 24.2527 10.0182 22.6719C9.53995 21.091 10.4308 19.4184 12.0139 18.938C23.3182 15.5076 42.1077 16.1692 53.9818 23.2177C55.4033 24.0628 55.8706 25.8991 55.0278 27.3185C54.1871 28.7421 52.3464 29.2116 50.9271 28.3666Z" fill="#2EBD59"/>
</svg>
