<svg width="27" height="28" viewBox="0 0 27 28" fill="none" xmlns="http://www.w3.org/2000/svg">
<g clip-path="url(#clip0_16_22)">
<path d="M26.6667 14C26.6667 21.3666 20.7 27.3333 13.3333 27.3333C5.96667 27.3333 0 21.3666 0 14C0 6.63329 5.96667 0.666626 13.3333 0.666626C20.7 0.666626 26.6667 6.63329 26.6667 14Z" fill="url(#paint0_linear_16_22)"/>
<path d="M10.8889 20.1111C10.4555 20.1111 10.5333 19.9445 10.3778 19.5333L9.11108 15.3556L16.9778 10.4445L17.9 10.6889L17.1333 12.7778L10.8889 20.1111Z" fill="#C8DAEA"/>
<path d="M10.8889 20.111C11.2222 20.111 11.3667 19.9555 11.5556 19.7777C11.8445 19.4999 15.5556 15.8888 15.5556 15.8888L13.2778 15.3333L11.1667 16.6666L10.8889 19.9999V20.111Z" fill="#A9C9DD"/>
<path d="M11.1112 16.711L16.489 20.6777C17.1001 21.011 17.5445 20.8443 17.7001 20.111L19.889 9.7999C20.1112 8.8999 19.5445 8.4999 18.9556 8.76657L6.11113 13.7221C5.23335 14.0777 5.24446 14.5666 5.95557 14.7777L9.25559 15.811L16.889 10.9999C17.2445 10.7777 17.5778 10.8999 17.3112 11.1443L11.1112 16.711Z" fill="url(#paint1_linear_16_22)"/>
</g>
<defs>
<linearGradient id="paint0_linear_16_22" x1="17.2411" y1="4.88107" x2="10.5744" y2="20.4364" gradientUnits="userSpaceOnUse">
<stop stop-color="#37AEE2"/>
<stop offset="1" stop-color="#1E96C8"/>
</linearGradient>
<linearGradient id="paint1_linear_16_22" x1="14.3324" y1="14.4171" x2="17.1102" y2="18.8616" gradientUnits="userSpaceOnUse">
<stop stop-color="#EFF7FC"/>
<stop offset="1" stop-color="white"/>
</linearGradient>
<clipPath id="clip0_16_22">
<rect width="26.6667" height="26.6667" fill="white" transform="translate(0 0.666626)"/>
</clipPath>
</defs>
</svg>
