<svg width="128" height="128" viewBox="0 0 128 128" fill="none" xmlns="http://www.w3.org/2000/svg">
<path d="M62.3 0.424995C61.75 0.674995 56.55 6.45 47.675 16.6C40.075 25.275 33.475 32.85 33 33.45C32.25 34.4 32.125 34.725 32.125 35.975C32.125 37.7 32.825 38.825 34.35 39.525C35.275 39.95 36.125 40 43.675 40H52L52.05 66.725C52.125 93.3 52.125 93.475 52.65 94.15C52.925 94.525 53.475 95.075 53.85 95.35C54.525 95.85 54.825 95.875 64 95.875C73.175 95.875 73.475 95.85 74.15 95.35C74.525 95.075 75.075 94.525 75.35 94.15C75.875 93.475 75.875 93.3 75.95 66.725L76 40L84.325 39.975C93.55 39.95 93.875 39.9 95.1 38.4C95.75 37.6 95.875 37.25 95.875 36C95.875 34.7 95.775 34.425 95 33.45C94.525 32.85 87.925 25.275 80.325 16.6C70.85 5.75 66.25 0.699997 65.675 0.400002C64.575 -0.0999985 63.35 -0.0999985 62.3 0.424995Z" fill="white"/>
<path d="M4.04961 104.925L4.12461 121.875L4.77461 123.275C5.59961 125.05 6.94961 126.4 8.72461 127.225L10.1246 127.875H63.9996H117.875L119.275 127.225C121.05 126.4 122.4 125.05 123.225 123.275L123.875 121.875L123.95 104.925L124.025 88H116H108V100V112H63.9996H19.9996V100V88H11.9996H3.97461L4.04961 104.925Z" fill="white"/>
</svg>
