<svg width="32" height="32" viewBox="0 0 32 32" fill="none" xmlns="http://www.w3.org/2000/svg">
<path d="M15.5001 5.10625C12.0001 5.20625 8.50634 6.43125 5.71885 8.525C3.33135 10.3188 1.36885 12.8063 0.225098 15.4813L0.00634766 16L0.225098 16.5125C2.4126 21.6375 7.0876 25.4313 12.6188 26.5688C14.6501 26.9875 17.3501 26.9813 19.4126 26.5625C24.9126 25.4375 29.5876 21.6375 31.7751 16.5125L31.9938 16L31.7751 15.4813C30.6376 12.8125 28.7438 10.4 26.3688 8.5875C23.2751 6.2375 19.4063 4.99375 15.5001 5.10625ZM17.2563 8.85C18.7938 9.1375 20.0563 9.8 21.1251 10.875C22.5126 12.2563 23.2501 14.0375 23.2501 16C23.2501 17.9625 22.5126 19.7438 21.1251 21.125C19.7438 22.5125 17.9626 23.25 16.0001 23.25C14.0376 23.25 12.2563 22.5125 10.8751 21.125C9.48759 19.7438 8.7501 17.9625 8.7501 16C8.7501 14.0375 9.48759 12.2563 10.8751 10.875C12.2501 9.49375 13.9938 8.7625 15.9438 8.75625C16.4251 8.75 16.9438 8.7875 17.2563 8.85Z" fill="#CE7829"/>
<path d="M15.2189 11.7125C14.2626 11.9063 13.6001 12.2625 12.9064 12.9625C12.0563 13.8188 11.6626 14.7813 11.6626 16C11.6626 17.2375 12.0563 18.1875 12.9376 19.0625C13.8126 19.9438 14.7626 20.3375 16.0001 20.3375C17.2376 20.3375 18.1876 19.9438 19.0626 19.0625C19.9439 18.1875 20.3376 17.2375 20.3376 16C20.3376 14.7625 19.9439 13.8125 19.0626 12.9375C18.2439 12.1125 17.3564 11.7188 16.1876 11.6563C15.8689 11.6375 15.4814 11.6625 15.2189 11.7125Z" fill="#CE7829"/>
</svg>
