<svg width="78" height="78" viewBox="0 0 78 78" fill="none" xmlns="http://www.w3.org/2000/svg">
<rect x="22.1" y="25.35" width="35.1" height="25.35" fill="white"/>
<path d="M40.3165 60.4254L27.5515 60.1919C23.4184 60.1106 19.2751 60.273 15.2231 59.4302C9.05911 58.1709 8.62243 51.9966 8.16549 46.8175C7.53587 39.5364 7.77962 32.123 8.96779 24.9027C9.63855 20.8513 12.2783 18.4338 16.3605 18.1707C30.141 17.216 44.0131 17.3292 57.7631 17.7746C59.2153 17.8154 60.6774 18.0386 62.1093 18.2926C69.1776 19.5316 69.3499 26.5285 69.8081 32.4185C70.2651 38.3694 70.0721 44.3508 69.1988 50.2611C68.4981 55.1547 67.1575 59.2584 61.5 59.6546C54.4115 60.1726 47.4857 60.5897 40.3773 60.4569C40.3776 60.4254 40.3367 60.4254 40.3165 60.4254ZM32.8119 48.0362C38.1537 44.9692 43.3935 41.9532 48.7047 38.9067C43.353 35.8397 38.1231 32.8237 32.8119 29.7772V48.0362Z" fill="#FF0000"/>
</svg>
